<svg width="153" height="25" viewBox="0 0 153 25" fill="none" xmlns="http://www.w3.org/2000/svg">
<path d="M8.06725 20.21C6.23325 20.21 4.80525 19.713 3.78325 18.719C2.77525 17.711 2.23625 16.339 2.16625 14.603C2.15225 14.183 2.14525 13.525 2.14525 12.629C2.14525 11.719 2.15225 11.061 2.16625 10.655C2.23625 8.933 2.78225 7.575 3.80425 6.581C4.82625 5.587 6.24725 5.09 8.06725 5.09C9.29925 5.09 10.3423 5.314 11.1963 5.762C12.0643 6.196 12.7153 6.728 13.1493 7.358C13.5833 7.988 13.8143 8.576 13.8423 9.122V9.164C13.8423 9.276 13.8003 9.367 13.7163 9.437C13.6323 9.507 13.5273 9.542 13.4013 9.542H12.1623C12.0223 9.542 11.9173 9.521 11.8473 9.479C11.7913 9.423 11.7353 9.318 11.6793 9.164C11.4693 8.534 11.0633 7.995 10.4613 7.547C9.87325 7.099 9.07525 6.875 8.06725 6.875C6.90525 6.875 5.99525 7.19 5.33725 7.82C4.67925 8.45 4.32225 9.43 4.26625 10.76C4.25225 11.166 4.24525 11.789 4.24525 12.629C4.24525 13.455 4.25225 14.078 4.26625 14.498C4.32225 15.842 4.67925 16.836 5.33725 17.48C5.99525 18.11 6.90525 18.425 8.06725 18.425C9.24325 18.425 10.1813 18.103 10.8813 17.459C11.5813 16.815 11.9313 15.849 11.9313 14.561V13.679H8.78125C8.64125 13.679 8.52225 13.637 8.42425 13.553C8.34025 13.455 8.29825 13.329 8.29825 13.175V12.503C8.29825 12.363 8.34025 12.244 8.42425 12.146C8.52225 12.048 8.64125 11.999 8.78125 11.999H13.5273C13.6673 11.999 13.7793 12.048 13.8633 12.146C13.9613 12.23 14.0103 12.349 14.0103 12.503V14.519C14.0103 15.667 13.7723 16.668 13.2963 17.522C12.8203 18.376 12.1343 19.041 11.2383 19.517C10.3423 19.979 9.28525 20.21 8.06725 20.21ZM17.4892 20C17.3492 20 17.2302 19.958 17.1322 19.874C17.0482 19.776 17.0062 19.657 17.0062 19.517V5.804C17.0062 5.65 17.0482 5.531 17.1322 5.447C17.2302 5.349 17.3492 5.3 17.4892 5.3H22.8232C24.4052 5.3 25.6512 5.685 26.5612 6.455C27.4712 7.225 27.9262 8.338 27.9262 9.794C27.9262 11.25 27.4712 12.363 26.5612 13.133C25.6652 13.889 24.4192 14.267 22.8232 14.267H19.1062V19.517C19.1062 19.657 19.0572 19.776 18.9592 19.874C18.8612 19.958 18.7422 20 18.6022 20H17.4892ZM22.7182 12.503C23.7402 12.503 24.5102 12.272 25.0282 11.81C25.5602 11.348 25.8262 10.676 25.8262 9.794C25.8262 8.912 25.5672 8.24 25.0492 7.778C24.5312 7.302 23.7542 7.064 22.7182 7.064H19.0852V12.503H22.7182ZM35.2048 20.21C34.0428 20.21 33.0348 20.028 32.1808 19.664C31.3408 19.3 30.6968 18.824 30.2488 18.236C29.8008 17.634 29.5628 16.99 29.5348 16.304C29.5348 16.192 29.5768 16.094 29.6608 16.01C29.7588 15.912 29.8708 15.863 29.9968 15.863H31.0678C31.3338 15.863 31.5158 16.003 31.6138 16.283C31.7398 16.871 32.0968 17.375 32.6848 17.795C33.2868 18.215 34.1268 18.425 35.2048 18.425C36.3668 18.425 37.2418 18.222 37.8298 17.816C38.4178 17.396 38.7118 16.815 38.7118 16.073C38.7118 15.597 38.5648 15.212 38.2708 14.918C37.9908 14.624 37.5708 14.365 37.0108 14.141C36.4508 13.917 35.6108 13.637 34.4908 13.301C33.3988 12.993 32.5308 12.664 31.8868 12.314C31.2428 11.964 30.7598 11.53 30.4378 11.012C30.1158 10.494 29.9548 9.843 29.9548 9.059C29.9548 8.303 30.1578 7.624 30.5638 7.022C30.9838 6.42 31.5788 5.951 32.3488 5.615C33.1188 5.265 34.0358 5.09 35.0998 5.09C36.1918 5.09 37.1298 5.286 37.9138 5.678C38.6978 6.056 39.2928 6.539 39.6988 7.127C40.1048 7.715 40.3218 8.303 40.3498 8.891C40.3498 9.003 40.3078 9.101 40.2238 9.185C40.1538 9.269 40.0488 9.311 39.9088 9.311H38.7958C38.5018 9.311 38.3198 9.178 38.2498 8.912C38.1658 8.324 37.8368 7.841 37.2628 7.463C36.6888 7.071 35.9678 6.875 35.0998 6.875C34.1478 6.875 33.3988 7.057 32.8528 7.421C32.3068 7.785 32.0338 8.324 32.0338 9.038C32.0338 9.514 32.1598 9.906 32.4118 10.214C32.6778 10.522 33.0768 10.795 33.6088 11.033C34.1408 11.257 34.9178 11.516 35.9398 11.81C37.1298 12.132 38.0678 12.468 38.7538 12.818C39.4398 13.154 39.9508 13.581 40.2868 14.099C40.6228 14.603 40.7908 15.247 40.7908 16.031C40.7908 17.333 40.2868 18.355 39.2788 19.097C38.2708 19.839 36.9128 20.21 35.2048 20.21ZM53.9828 20.21C52.1068 20.21 50.6788 19.706 49.6988 18.698C48.7328 17.69 48.2148 16.297 48.1448 14.519C48.1308 14.141 48.1238 13.525 48.1238 12.671C48.1238 11.803 48.1308 11.173 48.1448 10.781C48.2148 9.017 48.7398 7.631 49.7198 6.623C50.6998 5.601 52.1208 5.09 53.9828 5.09C55.2288 5.09 56.2858 5.314 57.1538 5.762C58.0218 6.196 58.6798 6.77 59.1278 7.484C59.5758 8.198 59.8208 8.961 59.8628 9.773V9.815C59.8628 9.927 59.8138 10.025 59.7158 10.109C59.6318 10.179 59.5338 10.214 59.4218 10.214H58.2668C57.9868 10.214 57.8118 10.053 57.7418 9.731C57.5038 8.681 57.0768 7.946 56.4608 7.526C55.8448 7.092 55.0188 6.875 53.9828 6.875C51.5748 6.875 50.3288 8.212 50.2448 10.886C50.2308 11.264 50.2238 11.845 50.2238 12.629C50.2238 13.413 50.2308 14.008 50.2448 14.414C50.3288 17.088 51.5748 18.425 53.9828 18.425C55.0188 18.425 55.8448 18.215 56.4608 17.795C57.0908 17.361 57.5178 16.619 57.7418 15.569C57.7838 15.387 57.8468 15.261 57.9308 15.191C58.0148 15.121 58.1268 15.086 58.2668 15.086H59.4218C59.5478 15.086 59.6528 15.128 59.7368 15.212C59.8348 15.282 59.8768 15.38 59.8628 15.506C59.8208 16.332 59.5758 17.102 59.1278 17.816C58.6798 18.53 58.0218 19.111 57.1538 19.559C56.2858 19.993 55.2288 20.21 53.9828 20.21ZM65.4491 20.21C64.7631 20.21 64.1261 20.07 63.5381 19.79C62.9501 19.51 62.4811 19.132 62.1311 18.656C61.7951 18.166 61.6271 17.627 61.6271 17.039C61.6271 16.115 62.0051 15.359 62.7611 14.771C63.5311 14.169 64.5671 13.777 65.8691 13.595L68.9981 13.154V12.545C68.9981 11.117 68.1791 10.403 66.5411 10.403C65.9251 10.403 65.4211 10.536 65.0291 10.802C64.6371 11.054 64.3431 11.355 64.1471 11.705C64.1051 11.831 64.0491 11.922 63.9791 11.978C63.9231 12.034 63.8391 12.062 63.7271 12.062H62.8241C62.6981 12.062 62.5861 12.02 62.4881 11.936C62.4041 11.838 62.3621 11.726 62.3621 11.6C62.3761 11.264 62.5301 10.886 62.8241 10.466C63.1321 10.032 63.6011 9.661 64.2311 9.353C64.8611 9.031 65.6381 8.87 66.5621 8.87C68.1301 8.87 69.2571 9.241 69.9431 9.983C70.6291 10.711 70.9721 11.621 70.9721 12.713V19.517C70.9721 19.657 70.9231 19.776 70.8251 19.874C70.7411 19.958 70.6291 20 70.4891 20H69.5231C69.3831 20 69.2641 19.958 69.1661 19.874C69.0821 19.776 69.0401 19.657 69.0401 19.517V18.614C68.7321 19.062 68.2841 19.44 67.6961 19.748C67.1081 20.056 66.3591 20.21 65.4491 20.21ZM65.8901 18.635C66.8001 18.635 67.5421 18.341 68.1161 17.753C68.7041 17.151 68.9981 16.29 68.9981 15.17V14.582L66.5621 14.939C65.5681 15.079 64.8191 15.317 64.3151 15.653C63.8111 15.975 63.5591 16.388 63.5591 16.892C63.5591 17.452 63.7901 17.886 64.2521 18.194C64.7141 18.488 65.2601 18.635 65.8901 18.635ZM74.495 20C74.355 20 74.236 19.958 74.138 19.874C74.054 19.776 74.012 19.657 74.012 19.517V5.573C74.012 5.433 74.054 5.321 74.138 5.237C74.236 5.139 74.355 5.09 74.495 5.09H75.482C75.622 5.09 75.734 5.139 75.818 5.237C75.916 5.321 75.965 5.433 75.965 5.573V19.517C75.965 19.657 75.916 19.776 75.818 19.874C75.734 19.958 75.622 20 75.482 20H74.495ZM79.4125 7.043C79.2725 7.043 79.1535 7.001 79.0555 6.917C78.9715 6.819 78.9295 6.7 78.9295 6.56V5.426C78.9295 5.286 78.9715 5.167 79.0555 5.069C79.1535 4.971 79.2725 4.922 79.4125 4.922H80.7355C80.8755 4.922 80.9945 4.971 81.0925 5.069C81.1905 5.167 81.2395 5.286 81.2395 5.426V6.56C81.2395 6.7 81.1905 6.819 81.0925 6.917C80.9945 7.001 80.8755 7.043 80.7355 7.043H79.4125ZM79.5805 20C79.4405 20 79.3215 19.958 79.2235 19.874C79.1395 19.776 79.0975 19.657 79.0975 19.517V9.563C79.0975 9.423 79.1395 9.311 79.2235 9.227C79.3215 9.129 79.4405 9.08 79.5805 9.08H80.5885C80.7285 9.08 80.8405 9.129 80.9245 9.227C81.0225 9.311 81.0715 9.423 81.0715 9.563V19.517C81.0715 19.657 81.0225 19.776 80.9245 19.874C80.8405 19.958 80.7285 20 80.5885 20H79.5805ZM89.5804 20.21C88.0684 20.21 86.9204 19.685 86.1364 18.635V19.517C86.1364 19.657 86.0874 19.776 85.9894 19.874C85.9054 19.958 85.7934 20 85.6534 20H84.6874C84.5474 20 84.4284 19.958 84.3304 19.874C84.2464 19.776 84.2044 19.657 84.2044 19.517V5.573C84.2044 5.433 84.2464 5.321 84.3304 5.237C84.4284 5.139 84.5474 5.09 84.6874 5.09H85.7164C85.8564 5.09 85.9684 5.139 86.0524 5.237C86.1364 5.321 86.1784 5.433 86.1784 5.573V10.403C87.0044 9.381 88.1384 8.87 89.5804 8.87C91.0364 8.87 92.1354 9.353 92.8774 10.319C93.6194 11.271 94.0184 12.468 94.0744 13.91C94.0884 14.064 94.0954 14.274 94.0954 14.54C94.0954 14.806 94.0884 15.016 94.0744 15.17C94.0184 16.626 93.6194 17.83 92.8774 18.782C92.1354 19.734 91.0364 20.21 89.5804 20.21ZM89.1394 18.509C90.1334 18.509 90.8544 18.201 91.3024 17.585C91.7644 16.969 92.0164 16.157 92.0584 15.149C92.0724 15.009 92.0794 14.806 92.0794 14.54C92.0794 11.894 91.0994 10.571 89.1394 10.571C88.2014 10.571 87.4804 10.879 86.9764 11.495C86.4724 12.111 86.2064 12.832 86.1784 13.658L86.1574 14.477L86.1784 15.275C86.2204 16.157 86.4794 16.92 86.9554 17.564C87.4454 18.194 88.1734 18.509 89.1394 18.509ZM97.1557 20C97.0157 20 96.8967 19.958 96.7987 19.874C96.7147 19.776 96.6727 19.657 96.6727 19.517V9.584C96.6727 9.444 96.7147 9.325 96.7987 9.227C96.8967 9.129 97.0157 9.08 97.1557 9.08H98.1217C98.2617 9.08 98.3807 9.129 98.4787 9.227C98.5767 9.325 98.6257 9.444 98.6257 9.584V10.508C99.1997 9.556 100.18 9.08 101.566 9.08H102.385C102.525 9.08 102.637 9.129 102.721 9.227C102.819 9.311 102.868 9.423 102.868 9.563V10.424C102.868 10.564 102.819 10.676 102.721 10.76C102.637 10.844 102.525 10.886 102.385 10.886H101.125C100.369 10.886 99.7737 11.11 99.3397 11.558C98.9057 11.992 98.6887 12.587 98.6887 13.343V19.517C98.6887 19.657 98.6397 19.776 98.5417 19.874C98.4437 19.958 98.3247 20 98.1847 20H97.1557ZM107.531 20.21C106.845 20.21 106.208 20.07 105.62 19.79C105.032 19.51 104.563 19.132 104.213 18.656C103.877 18.166 103.709 17.627 103.709 17.039C103.709 16.115 104.087 15.359 104.843 14.771C105.613 14.169 106.649 13.777 107.951 13.595L111.08 13.154V12.545C111.08 11.117 110.261 10.403 108.623 10.403C108.007 10.403 107.503 10.536 107.111 10.802C106.719 11.054 106.425 11.355 106.229 11.705C106.187 11.831 106.131 11.922 106.061 11.978C106.005 12.034 105.921 12.062 105.809 12.062H104.906C104.78 12.062 104.668 12.02 104.57 11.936C104.486 11.838 104.444 11.726 104.444 11.6C104.458 11.264 104.612 10.886 104.906 10.466C105.214 10.032 105.683 9.661 106.313 9.353C106.943 9.031 107.72 8.87 108.644 8.87C110.212 8.87 111.339 9.241 112.025 9.983C112.711 10.711 113.054 11.621 113.054 12.713V19.517C113.054 19.657 113.005 19.776 112.907 19.874C112.823 19.958 112.711 20 112.571 20H111.605C111.465 20 111.346 19.958 111.248 19.874C111.164 19.776 111.122 19.657 111.122 19.517V18.614C110.814 19.062 110.366 19.44 109.778 19.748C109.19 20.056 108.441 20.21 107.531 20.21ZM107.972 18.635C108.882 18.635 109.624 18.341 110.198 17.753C110.786 17.151 111.08 16.29 111.08 15.17V14.582L108.644 14.939C107.65 15.079 106.901 15.317 106.397 15.653C105.893 15.975 105.641 16.388 105.641 16.892C105.641 17.452 105.872 17.886 106.334 18.194C106.796 18.488 107.342 18.635 107.972 18.635ZM120.234 20C118.022 20 116.916 18.768 116.916 16.304V10.76H115.278C115.138 10.76 115.019 10.718 114.921 10.634C114.837 10.536 114.795 10.417 114.795 10.277V9.563C114.795 9.423 114.837 9.311 114.921 9.227C115.019 9.129 115.138 9.08 115.278 9.08H116.916V5.573C116.916 5.433 116.958 5.321 117.042 5.237C117.14 5.139 117.259 5.09 117.399 5.09H118.386C118.526 5.09 118.638 5.139 118.722 5.237C118.82 5.321 118.869 5.433 118.869 5.573V9.08H121.473C121.613 9.08 121.725 9.129 121.809 9.227C121.907 9.311 121.956 9.423 121.956 9.563V10.277C121.956 10.417 121.907 10.536 121.809 10.634C121.725 10.718 121.613 10.76 121.473 10.76H118.869V16.157C118.869 16.857 118.988 17.389 119.226 17.753C119.464 18.103 119.856 18.278 120.402 18.278H121.683C121.823 18.278 121.935 18.327 122.019 18.425C122.117 18.509 122.166 18.621 122.166 18.761V19.517C122.166 19.657 122.117 19.776 122.019 19.874C121.935 19.958 121.823 20 121.683 20H120.234ZM124.489 7.043C124.349 7.043 124.23 7.001 124.132 6.917C124.048 6.819 124.006 6.7 124.006 6.56V5.426C124.006 5.286 124.048 5.167 124.132 5.069C124.23 4.971 124.349 4.922 124.489 4.922H125.812C125.952 4.922 126.071 4.971 126.169 5.069C126.267 5.167 126.316 5.286 126.316 5.426V6.56C126.316 6.7 126.267 6.819 126.169 6.917C126.071 7.001 125.952 7.043 125.812 7.043H124.489ZM124.657 20C124.517 20 124.398 19.958 124.3 19.874C124.216 19.776 124.174 19.657 124.174 19.517V9.563C124.174 9.423 124.216 9.311 124.3 9.227C124.398 9.129 124.517 9.08 124.657 9.08H125.665C125.805 9.08 125.917 9.129 126.001 9.227C126.099 9.311 126.148 9.423 126.148 9.563V19.517C126.148 19.657 126.099 19.776 126.001 19.874C125.917 19.958 125.805 20 125.665 20H124.657ZM133.733 20.21C132.193 20.21 130.996 19.776 130.142 18.908C129.302 18.04 128.854 16.885 128.798 15.443L128.777 14.54L128.798 13.637C128.854 12.209 129.309 11.061 130.163 10.193C131.017 9.311 132.207 8.87 133.733 8.87C135.259 8.87 136.449 9.311 137.303 10.193C138.157 11.061 138.612 12.209 138.668 13.637C138.682 13.791 138.689 14.092 138.689 14.54C138.689 14.988 138.682 15.289 138.668 15.443C138.612 16.885 138.157 18.04 137.303 18.908C136.463 19.776 135.273 20.21 133.733 20.21ZM133.733 18.593C134.615 18.593 135.308 18.313 135.812 17.753C136.33 17.193 136.61 16.388 136.652 15.338C136.666 15.198 136.673 14.932 136.673 14.54C136.673 14.148 136.666 13.882 136.652 13.742C136.61 12.692 136.33 11.887 135.812 11.327C135.308 10.767 134.615 10.487 133.733 10.487C132.851 10.487 132.151 10.767 131.633 11.327C131.115 11.887 130.842 12.692 130.814 13.742L130.793 14.54L130.814 15.338C130.842 16.388 131.115 17.193 131.633 17.753C132.151 18.313 132.851 18.593 133.733 18.593ZM141.801 20C141.661 20 141.542 19.958 141.444 19.874C141.36 19.776 141.318 19.657 141.318 19.517V9.563C141.318 9.423 141.36 9.311 141.444 9.227C141.542 9.129 141.661 9.08 141.801 9.08H142.788C142.928 9.08 143.04 9.129 143.124 9.227C143.222 9.311 143.271 9.423 143.271 9.563V10.487C143.677 9.969 144.153 9.57 144.699 9.29C145.259 9.01 145.952 8.87 146.778 8.87C148.122 8.87 149.165 9.304 149.907 10.172C150.663 11.026 151.041 12.167 151.041 13.595V19.517C151.041 19.657 150.992 19.776 150.894 19.874C150.81 19.958 150.698 20 150.558 20H149.508C149.368 20 149.249 19.958 149.151 19.874C149.067 19.776 149.025 19.657 149.025 19.517V13.7C149.025 12.706 148.78 11.936 148.29 11.39C147.814 10.844 147.121 10.571 146.211 10.571C145.329 10.571 144.629 10.851 144.111 11.411C143.593 11.957 143.334 12.72 143.334 13.7V19.517C143.334 19.657 143.285 19.776 143.187 19.874C143.103 19.958 142.991 20 142.851 20H141.801Z" fill="#00122C"/>
</svg>
