<svg width="186" height="27" viewBox="0 0 186 27" fill="none" xmlns="http://www.w3.org/2000/svg">
<path d="M37.2611 21.21C35.3851 21.21 33.9571 20.706 32.9771 19.698C32.0111 18.69 31.4931 17.297 31.4231 15.519C31.4091 15.141 31.4021 14.525 31.4021 13.671C31.4021 12.803 31.4091 12.173 31.4231 11.781C31.4931 10.017 32.0181 8.631 32.9981 7.623C33.9781 6.601 35.3991 6.09 37.2611 6.09C38.5071 6.09 39.5641 6.314 40.4321 6.762C41.3001 7.196 41.9581 7.77 42.4061 8.484C42.8541 9.198 43.0991 9.961 43.1411 10.773V10.815C43.1411 10.927 43.0921 11.025 42.9941 11.109C42.9101 11.179 42.8121 11.214 42.7001 11.214H41.5451C41.2651 11.214 41.0901 11.053 41.0201 10.731C40.7821 9.681 40.3551 8.946 39.7391 8.526C39.1231 8.092 38.2971 7.875 37.2611 7.875C34.8531 7.875 33.6071 9.212 33.5231 11.886C33.5091 12.264 33.5021 12.845 33.5021 13.629C33.5021 14.413 33.5091 15.008 33.5231 15.414C33.6071 18.088 34.8531 19.425 37.2611 19.425C38.2971 19.425 39.1231 19.215 39.7391 18.795C40.3691 18.361 40.7961 17.619 41.0201 16.569C41.0621 16.387 41.1251 16.261 41.2091 16.191C41.2931 16.121 41.4051 16.086 41.5451 16.086H42.7001C42.8261 16.086 42.9311 16.128 43.0151 16.212C43.1131 16.282 43.1551 16.38 43.1411 16.506C43.0991 17.332 42.8541 18.102 42.4061 18.816C41.9581 19.53 41.3001 20.111 40.4321 20.559C39.5641 20.993 38.5071 21.21 37.2611 21.21ZM48.7274 21.21C48.0414 21.21 47.4044 21.07 46.8164 20.79C46.2284 20.51 45.7594 20.132 45.4094 19.656C45.0734 19.166 44.9054 18.627 44.9054 18.039C44.9054 17.115 45.2834 16.359 46.0394 15.771C46.8094 15.169 47.8454 14.777 49.1474 14.595L52.2764 14.154V13.545C52.2764 12.117 51.4574 11.403 49.8194 11.403C49.2034 11.403 48.6994 11.536 48.3074 11.802C47.9154 12.054 47.6214 12.355 47.4254 12.705C47.3834 12.831 47.3274 12.922 47.2574 12.978C47.2014 13.034 47.1174 13.062 47.0054 13.062H46.1024C45.9764 13.062 45.8644 13.02 45.7664 12.936C45.6824 12.838 45.6404 12.726 45.6404 12.6C45.6544 12.264 45.8084 11.886 46.1024 11.466C46.4104 11.032 46.8794 10.661 47.5094 10.353C48.1394 10.031 48.9164 9.87 49.8404 9.87C51.4084 9.87 52.5354 10.241 53.2214 10.983C53.9074 11.711 54.2504 12.621 54.2504 13.713V20.517C54.2504 20.657 54.2014 20.776 54.1034 20.874C54.0194 20.958 53.9074 21 53.7674 21H52.8014C52.6614 21 52.5424 20.958 52.4444 20.874C52.3604 20.776 52.3184 20.657 52.3184 20.517V19.614C52.0104 20.062 51.5624 20.44 50.9744 20.748C50.3864 21.056 49.6374 21.21 48.7274 21.21ZM49.1684 19.635C50.0784 19.635 50.8204 19.341 51.3944 18.753C51.9824 18.151 52.2764 17.29 52.2764 16.17V15.582L49.8404 15.939C48.8464 16.079 48.0974 16.317 47.5934 16.653C47.0894 16.975 46.8374 17.388 46.8374 17.892C46.8374 18.452 47.0684 18.886 47.5304 19.194C47.9924 19.488 48.5384 19.635 49.1684 19.635ZM57.7733 21C57.6333 21 57.5143 20.958 57.4163 20.874C57.3323 20.776 57.2903 20.657 57.2903 20.517V6.573C57.2903 6.433 57.3323 6.321 57.4163 6.237C57.5143 6.139 57.6333 6.09 57.7733 6.09H58.7603C58.9003 6.09 59.0123 6.139 59.0963 6.237C59.1943 6.321 59.2433 6.433 59.2433 6.573V20.517C59.2433 20.657 59.1943 20.776 59.0963 20.874C59.0123 20.958 58.9003 21 58.7603 21H57.7733ZM62.6908 8.043C62.5508 8.043 62.4318 8.001 62.3338 7.917C62.2498 7.819 62.2078 7.7 62.2078 7.56V6.426C62.2078 6.286 62.2498 6.167 62.3338 6.069C62.4318 5.971 62.5508 5.922 62.6908 5.922H64.0138C64.1538 5.922 64.2728 5.971 64.3708 6.069C64.4688 6.167 64.5178 6.286 64.5178 6.426V7.56C64.5178 7.7 64.4688 7.819 64.3708 7.917C64.2728 8.001 64.1538 8.043 64.0138 8.043H62.6908ZM62.8588 21C62.7188 21 62.5998 20.958 62.5018 20.874C62.4178 20.776 62.3758 20.657 62.3758 20.517V10.563C62.3758 10.423 62.4178 10.311 62.5018 10.227C62.5998 10.129 62.7188 10.08 62.8588 10.08H63.8668C64.0068 10.08 64.1188 10.129 64.2028 10.227C64.3008 10.311 64.3498 10.423 64.3498 10.563V20.517C64.3498 20.657 64.3008 20.776 64.2028 20.874C64.1188 20.958 64.0068 21 63.8668 21H62.8588ZM72.8587 21.21C71.3467 21.21 70.1987 20.685 69.4147 19.635V20.517C69.4147 20.657 69.3657 20.776 69.2677 20.874C69.1837 20.958 69.0717 21 68.9317 21H67.9657C67.8257 21 67.7067 20.958 67.6087 20.874C67.5247 20.776 67.4827 20.657 67.4827 20.517V6.573C67.4827 6.433 67.5247 6.321 67.6087 6.237C67.7067 6.139 67.8257 6.09 67.9657 6.09H68.9947C69.1347 6.09 69.2467 6.139 69.3307 6.237C69.4147 6.321 69.4567 6.433 69.4567 6.573V11.403C70.2827 10.381 71.4167 9.87 72.8587 9.87C74.3147 9.87 75.4137 10.353 76.1557 11.319C76.8977 12.271 77.2967 13.468 77.3527 14.91C77.3667 15.064 77.3737 15.274 77.3737 15.54C77.3737 15.806 77.3667 16.016 77.3527 16.17C77.2967 17.626 76.8977 18.83 76.1557 19.782C75.4137 20.734 74.3147 21.21 72.8587 21.21ZM72.4177 19.509C73.4117 19.509 74.1327 19.201 74.5807 18.585C75.0427 17.969 75.2947 17.157 75.3367 16.149C75.3507 16.009 75.3577 15.806 75.3577 15.54C75.3577 12.894 74.3777 11.571 72.4177 11.571C71.4797 11.571 70.7587 11.879 70.2547 12.495C69.7507 13.111 69.4847 13.832 69.4567 14.658L69.4357 15.477L69.4567 16.275C69.4987 17.157 69.7577 17.92 70.2337 18.564C70.7237 19.194 71.4517 19.509 72.4177 19.509ZM80.434 21C80.294 21 80.175 20.958 80.077 20.874C79.993 20.776 79.951 20.657 79.951 20.517V10.584C79.951 10.444 79.993 10.325 80.077 10.227C80.175 10.129 80.294 10.08 80.434 10.08H81.4C81.54 10.08 81.659 10.129 81.757 10.227C81.855 10.325 81.904 10.444 81.904 10.584V11.508C82.478 10.556 83.458 10.08 84.844 10.08H85.663C85.803 10.08 85.915 10.129 85.999 10.227C86.097 10.311 86.146 10.423 86.146 10.563V11.424C86.146 11.564 86.097 11.676 85.999 11.76C85.915 11.844 85.803 11.886 85.663 11.886H84.403C83.647 11.886 83.052 12.11 82.618 12.558C82.184 12.992 81.967 13.587 81.967 14.343V20.517C81.967 20.657 81.918 20.776 81.82 20.874C81.722 20.958 81.603 21 81.463 21H80.434ZM90.8094 21.21C90.1234 21.21 89.4864 21.07 88.8984 20.79C88.3104 20.51 87.8414 20.132 87.4914 19.656C87.1554 19.166 86.9874 18.627 86.9874 18.039C86.9874 17.115 87.3654 16.359 88.1214 15.771C88.8914 15.169 89.9274 14.777 91.2294 14.595L94.3584 14.154V13.545C94.3584 12.117 93.5394 11.403 91.9014 11.403C91.2854 11.403 90.7814 11.536 90.3894 11.802C89.9974 12.054 89.7034 12.355 89.5074 12.705C89.4654 12.831 89.4094 12.922 89.3394 12.978C89.2834 13.034 89.1994 13.062 89.0874 13.062H88.1844C88.0584 13.062 87.9464 13.02 87.8484 12.936C87.7644 12.838 87.7224 12.726 87.7224 12.6C87.7364 12.264 87.8904 11.886 88.1844 11.466C88.4924 11.032 88.9614 10.661 89.5914 10.353C90.2214 10.031 90.9984 9.87 91.9224 9.87C93.4904 9.87 94.6174 10.241 95.3034 10.983C95.9894 11.711 96.3324 12.621 96.3324 13.713V20.517C96.3324 20.657 96.2834 20.776 96.1854 20.874C96.1014 20.958 95.9894 21 95.8494 21H94.8834C94.7434 21 94.6244 20.958 94.5264 20.874C94.4424 20.776 94.4004 20.657 94.4004 20.517V19.614C94.0924 20.062 93.6444 20.44 93.0564 20.748C92.4684 21.056 91.7194 21.21 90.8094 21.21ZM91.2504 19.635C92.1604 19.635 92.9024 19.341 93.4764 18.753C94.0644 18.151 94.3584 17.29 94.3584 16.17V15.582L91.9224 15.939C90.9284 16.079 90.1794 16.317 89.6754 16.653C89.1714 16.975 88.9194 17.388 88.9194 17.892C88.9194 18.452 89.1504 18.886 89.6124 19.194C90.0744 19.488 90.6204 19.635 91.2504 19.635ZM103.761 21.21C102.263 21.21 101.087 20.79 100.233 19.95C99.3934 19.096 98.9454 17.906 98.8894 16.38L98.8684 15.54L98.8894 14.7C98.9454 13.174 99.3934 11.991 100.233 11.151C101.087 10.297 102.263 9.87 103.761 9.87C104.769 9.87 105.623 10.052 106.323 10.416C107.023 10.78 107.541 11.228 107.877 11.76C108.227 12.292 108.416 12.824 108.444 13.356C108.458 13.496 108.416 13.608 108.318 13.692C108.22 13.776 108.101 13.818 107.961 13.818H106.953C106.813 13.818 106.708 13.79 106.638 13.734C106.568 13.678 106.498 13.566 106.428 13.398C106.19 12.726 105.854 12.25 105.42 11.97C104.986 11.676 104.44 11.529 103.782 11.529C102.914 11.529 102.221 11.802 101.703 12.348C101.199 12.88 100.926 13.699 100.884 14.805L100.863 15.561L100.884 16.275C100.926 17.395 101.199 18.221 101.703 18.753C102.207 19.285 102.9 19.551 103.782 19.551C104.44 19.551 104.986 19.411 105.42 19.131C105.854 18.837 106.19 18.354 106.428 17.682C106.498 17.514 106.568 17.402 106.638 17.346C106.708 17.276 106.813 17.241 106.953 17.241H107.961C108.101 17.241 108.22 17.29 108.318 17.388C108.416 17.472 108.458 17.584 108.444 17.724C108.416 18.242 108.227 18.774 107.877 19.32C107.541 19.852 107.023 20.3 106.323 20.664C105.637 21.028 104.783 21.21 103.761 21.21ZM111.253 8.043C111.113 8.043 110.994 8.001 110.896 7.917C110.812 7.819 110.77 7.7 110.77 7.56V6.426C110.77 6.286 110.812 6.167 110.896 6.069C110.994 5.971 111.113 5.922 111.253 5.922H112.576C112.716 5.922 112.835 5.971 112.933 6.069C113.031 6.167 113.08 6.286 113.08 6.426V7.56C113.08 7.7 113.031 7.819 112.933 7.917C112.835 8.001 112.716 8.043 112.576 8.043H111.253ZM111.421 21C111.281 21 111.162 20.958 111.064 20.874C110.98 20.776 110.938 20.657 110.938 20.517V10.563C110.938 10.423 110.98 10.311 111.064 10.227C111.162 10.129 111.281 10.08 111.421 10.08H112.429C112.569 10.08 112.681 10.129 112.765 10.227C112.863 10.311 112.912 10.423 112.912 10.563V20.517C112.912 20.657 112.863 20.776 112.765 20.874C112.681 20.958 112.569 21 112.429 21H111.421ZM120.497 21.21C118.957 21.21 117.76 20.776 116.906 19.908C116.066 19.04 115.618 17.885 115.562 16.443L115.541 15.54L115.562 14.637C115.618 13.209 116.073 12.061 116.927 11.193C117.781 10.311 118.971 9.87 120.497 9.87C122.023 9.87 123.213 10.311 124.067 11.193C124.921 12.061 125.376 13.209 125.432 14.637C125.446 14.791 125.453 15.092 125.453 15.54C125.453 15.988 125.446 16.289 125.432 16.443C125.376 17.885 124.921 19.04 124.067 19.908C123.227 20.776 122.037 21.21 120.497 21.21ZM120.497 19.593C121.379 19.593 122.072 19.313 122.576 18.753C123.094 18.193 123.374 17.388 123.416 16.338C123.43 16.198 123.437 15.932 123.437 15.54C123.437 15.148 123.43 14.882 123.416 14.742C123.374 13.692 123.094 12.887 122.576 12.327C122.072 11.767 121.379 11.487 120.497 11.487C119.615 11.487 118.915 11.767 118.397 12.327C117.879 12.887 117.606 13.692 117.578 14.742L117.557 15.54L117.578 16.338C117.606 17.388 117.879 18.193 118.397 18.753C118.915 19.313 119.615 19.593 120.497 19.593ZM119.867 8.505C119.643 8.505 119.531 8.393 119.531 8.169C119.531 8.057 119.566 7.966 119.636 7.896L121.211 6.006C121.351 5.852 121.463 5.747 121.547 5.691C121.645 5.635 121.792 5.607 121.988 5.607H123.416C123.542 5.607 123.64 5.649 123.71 5.733C123.78 5.803 123.815 5.901 123.815 6.027C123.815 6.125 123.78 6.209 123.71 6.279L121.274 8.274C121.162 8.372 121.057 8.435 120.959 8.463C120.861 8.491 120.735 8.505 120.581 8.505H119.867ZM128.566 21C128.426 21 128.307 20.958 128.209 20.874C128.125 20.776 128.083 20.657 128.083 20.517V10.563C128.083 10.423 128.125 10.311 128.209 10.227C128.307 10.129 128.426 10.08 128.566 10.08H129.553C129.693 10.08 129.805 10.129 129.889 10.227C129.987 10.311 130.036 10.423 130.036 10.563V11.487C130.442 10.969 130.918 10.57 131.464 10.29C132.024 10.01 132.717 9.87 133.543 9.87C134.887 9.87 135.93 10.304 136.672 11.172C137.428 12.026 137.806 13.167 137.806 14.595V20.517C137.806 20.657 137.757 20.776 137.659 20.874C137.575 20.958 137.463 21 137.323 21H136.273C136.133 21 136.014 20.958 135.916 20.874C135.832 20.776 135.79 20.657 135.79 20.517V14.7C135.79 13.706 135.545 12.936 135.055 12.39C134.579 11.844 133.886 11.571 132.976 11.571C132.094 11.571 131.394 11.851 130.876 12.411C130.358 12.957 130.099 13.72 130.099 14.7V20.517C130.099 20.657 130.05 20.776 129.952 20.874C129.868 20.958 129.756 21 129.616 21H128.566ZM151.594 21.21C149.76 21.21 148.332 20.713 147.31 19.719C146.302 18.711 145.763 17.339 145.693 15.603C145.679 15.183 145.672 14.525 145.672 13.629C145.672 12.719 145.679 12.061 145.693 11.655C145.763 9.933 146.309 8.575 147.331 7.581C148.353 6.587 149.774 6.09 151.594 6.09C152.826 6.09 153.869 6.314 154.723 6.762C155.591 7.196 156.242 7.728 156.676 8.358C157.11 8.988 157.341 9.576 157.369 10.122V10.164C157.369 10.276 157.327 10.367 157.243 10.437C157.159 10.507 157.054 10.542 156.928 10.542H155.689C155.549 10.542 155.444 10.521 155.374 10.479C155.318 10.423 155.262 10.318 155.206 10.164C154.996 9.534 154.59 8.995 153.988 8.547C153.4 8.099 152.602 7.875 151.594 7.875C150.432 7.875 149.522 8.19 148.864 8.82C148.206 9.45 147.849 10.43 147.793 11.76C147.779 12.166 147.772 12.789 147.772 13.629C147.772 14.455 147.779 15.078 147.793 15.498C147.849 16.842 148.206 17.836 148.864 18.48C149.522 19.11 150.432 19.425 151.594 19.425C152.77 19.425 153.708 19.103 154.408 18.459C155.108 17.815 155.458 16.849 155.458 15.561V14.679H152.308C152.168 14.679 152.049 14.637 151.951 14.553C151.867 14.455 151.825 14.329 151.825 14.175V13.503C151.825 13.363 151.867 13.244 151.951 13.146C152.049 13.048 152.168 12.999 152.308 12.999H157.054C157.194 12.999 157.306 13.048 157.39 13.146C157.488 13.23 157.537 13.349 157.537 13.503V15.519C157.537 16.667 157.299 17.668 156.823 18.522C156.347 19.376 155.661 20.041 154.765 20.517C153.869 20.979 152.812 21.21 151.594 21.21ZM161.016 21C160.876 21 160.757 20.958 160.659 20.874C160.575 20.776 160.533 20.657 160.533 20.517V6.804C160.533 6.65 160.575 6.531 160.659 6.447C160.757 6.349 160.876 6.3 161.016 6.3H166.35C167.932 6.3 169.178 6.685 170.088 7.455C170.998 8.225 171.453 9.338 171.453 10.794C171.453 12.25 170.998 13.363 170.088 14.133C169.192 14.889 167.946 15.267 166.35 15.267H162.633V20.517C162.633 20.657 162.584 20.776 162.486 20.874C162.388 20.958 162.269 21 162.129 21H161.016ZM166.245 13.503C167.267 13.503 168.037 13.272 168.555 12.81C169.087 12.348 169.353 11.676 169.353 10.794C169.353 9.912 169.094 9.24 168.576 8.778C168.058 8.302 167.281 8.064 166.245 8.064H162.612V13.503H166.245ZM178.731 21.21C177.569 21.21 176.561 21.028 175.707 20.664C174.867 20.3 174.223 19.824 173.775 19.236C173.327 18.634 173.089 17.99 173.061 17.304C173.061 17.192 173.103 17.094 173.187 17.01C173.285 16.912 173.397 16.863 173.523 16.863H174.594C174.86 16.863 175.042 17.003 175.14 17.283C175.266 17.871 175.623 18.375 176.211 18.795C176.813 19.215 177.653 19.425 178.731 19.425C179.893 19.425 180.768 19.222 181.356 18.816C181.944 18.396 182.238 17.815 182.238 17.073C182.238 16.597 182.091 16.212 181.797 15.918C181.517 15.624 181.097 15.365 180.537 15.141C179.977 14.917 179.137 14.637 178.017 14.301C176.925 13.993 176.057 13.664 175.413 13.314C174.769 12.964 174.286 12.53 173.964 12.012C173.642 11.494 173.481 10.843 173.481 10.059C173.481 9.303 173.684 8.624 174.09 8.022C174.51 7.42 175.105 6.951 175.875 6.615C176.645 6.265 177.562 6.09 178.626 6.09C179.718 6.09 180.656 6.286 181.44 6.678C182.224 7.056 182.819 7.539 183.225 8.127C183.631 8.715 183.848 9.303 183.876 9.891C183.876 10.003 183.834 10.101 183.75 10.185C183.68 10.269 183.575 10.311 183.435 10.311H182.322C182.028 10.311 181.846 10.178 181.776 9.912C181.692 9.324 181.363 8.841 180.789 8.463C180.215 8.071 179.494 7.875 178.626 7.875C177.674 7.875 176.925 8.057 176.379 8.421C175.833 8.785 175.56 9.324 175.56 10.038C175.56 10.514 175.686 10.906 175.938 11.214C176.204 11.522 176.603 11.795 177.135 12.033C177.667 12.257 178.444 12.516 179.466 12.81C180.656 13.132 181.594 13.468 182.28 13.818C182.966 14.154 183.477 14.581 183.813 15.099C184.149 15.603 184.317 16.247 184.317 17.031C184.317 18.333 183.813 19.355 182.805 20.097C181.797 20.839 180.439 21.21 178.731 21.21Z" fill="#00122C"/>
<g clip-path="url(#clip0)">
<path d="M2.21703 6.53711C2.21703 6.53711 2.87372 16.1226 10.0953 16.1226C17.3169 16.1226 20.0021 8.38185 20.0021 8.38185C20.0021 8.38185 20.7192 17.0751 10.75 25.8266C10.752 25.8286 -1.84196 15.1118 2.21703 6.53711Z" fill="#D6AC29"/>
<path d="M10.4988 7.1983C12.1889 7.1983 13.6252 8.29952 14.1267 9.82073C14.2214 10.1101 14.5095 10.291 14.8096 10.2407C15.1823 10.1784 15.4079 9.79863 15.289 9.44093C14.6263 7.43341 12.7308 5.97852 10.4988 5.97852C8.26688 5.97852 6.36933 7.43341 5.70861 9.44093C5.58976 9.79863 5.81537 10.1804 6.18803 10.2407C6.48818 10.291 6.77624 10.1101 6.87091 9.82073C7.37249 8.29952 8.80875 7.1983 10.4988 7.1983Z" fill="#00122C"/>
<path d="M10.5031 9.21392C11.2222 9.21392 11.8446 9.63793 12.1307 10.2488C12.2435 10.49 12.5114 10.6206 12.7773 10.5784C13.1782 10.5121 13.4058 10.08 13.2305 9.7143C12.7451 8.69748 11.7057 7.99414 10.5051 7.99414C9.29644 7.99414 8.25299 8.70551 7.77155 9.73037C7.60234 10.0901 7.82191 10.5101 8.21472 10.5744L8.22882 10.5764C8.49673 10.6206 8.76465 10.49 8.87745 10.2488C9.16148 9.63793 9.78393 9.21392 10.5031 9.21392Z" fill="#00122C"/>
<path d="M10.499 5.02648C13.2648 5.02648 15.5975 6.90539 16.2864 9.45146C16.367 9.74887 16.6671 9.93174 16.9733 9.8815C17.3319 9.82121 17.5595 9.46553 17.4628 9.11587C16.6288 6.05938 13.8228 3.80469 10.497 3.80469C7.17128 3.80469 4.36927 6.05938 3.53531 9.11788C3.44063 9.46754 3.66624 9.82322 4.02481 9.88351C4.33099 9.93375 4.63114 9.75088 4.71171 9.45347C5.40063 6.90539 7.73329 5.02648 10.499 5.02648Z" fill="#00122C"/>
<path d="M10.499 0C4.70964 0 0 4.69827 0 10.4737C0 12.3968 0.70705 14.4565 1.74245 16.4419C1.99223 16.9202 2.58647 17.0991 3.05381 16.8298C3.48892 16.5786 3.6541 16.03 3.42043 15.5859C2.50187 13.8436 1.87942 12.0732 1.87942 10.4716C1.87942 5.72916 5.74705 1.87087 10.501 1.87087C15.255 1.87087 19.1226 5.72916 19.1226 10.4716C19.1226 15.8069 12.3442 22.9187 10.503 24.7513C9.64691 23.8953 7.72317 21.8878 5.9082 19.4542C5.62014 19.0684 5.09036 18.9559 4.67137 19.197C4.18187 19.4783 4.04489 20.1254 4.3813 20.5776C6.9154 23.9857 9.64892 26.5479 9.86043 26.7448C10.0357 26.9076 10.2633 26.996 10.501 26.996C10.7387 26.996 10.9643 26.9076 11.1396 26.7468C11.5424 26.375 21.002 17.5673 21.002 10.4716C21 4.69827 16.2904 0 10.499 0Z" fill="#00122C"/>
<path d="M3.82908 18.9518C4.30746 18.9518 4.69527 18.565 4.69527 18.0877C4.69527 17.6105 4.30746 17.2236 3.82908 17.2236C3.3507 17.2236 2.96289 17.6105 2.96289 18.0877C2.96289 18.565 3.3507 18.9518 3.82908 18.9518Z" fill="#00122C"/>
<path d="M19.2653 26.5009H16.7335C16.6862 26.5009 16.6421 26.4805 16.6125 26.4461L15.0337 24.5867C15.0046 24.5523 14.9935 24.507 15.0037 24.4639L15.5672 22.1448C15.5778 22.1017 15.6083 22.0656 15.6507 22.0465L17.9325 21.0143C17.9749 20.9952 18.0243 20.9952 18.0667 21.0143L20.3481 22.0465C20.3905 22.0656 20.4214 22.1021 20.4316 22.1448L20.9951 24.4639C21.0057 24.507 20.9946 24.5523 20.9651 24.5867L19.3863 26.4465C19.3567 26.4805 19.3125 26.5009 19.2653 26.5009ZM16.8077 26.2105H19.1911L20.6771 24.4602L20.1463 22.2776L17.9992 21.3064L15.8525 22.2776L15.3221 24.4602L16.8077 26.2105Z" fill="#00122C" stroke="black" stroke-width="0.7" stroke-linejoin="round"/>
<path d="M15.4809 23.4212V23.3382L15.4619 23.2573C15.5688 23.2312 18.5943 22.2724 19.7513 21.9053L19.8078 22.0625C15.5282 23.4212 15.4999 23.4212 15.4809 23.4212Z" fill="#00122C"/>
<path d="M20.575 23.5876L15.6377 25.1025L15.6925 25.2603L20.6298 23.7453L20.575 23.5876Z" fill="#00122C"/>
<path d="M16.9158 21.6813L16.7852 21.793L20.1687 25.287L20.2993 25.1754L16.9158 21.6813Z" fill="#00122C"/>
<path d="M15.5261 23.3746L15.3965 23.4873L18.2605 26.3941L18.3901 26.2813L15.5261 23.3746Z" fill="#00122C"/>
</g>
<defs>
<clipPath id="clip0">
<rect width="21" height="27" fill="white"/>
</clipPath>
</defs>
</svg>
