<svg width="310" height="52" viewBox="0 0 310 52" fill="none" xmlns="http://www.w3.org/2000/svg">
<g clip-path="url(#clip0)">
<path d="M2.21703 19.5371C2.21703 19.5371 2.87372 29.1226 10.0953 29.1226C17.3169 29.1226 20.0021 21.3819 20.0021 21.3819C20.0021 21.3819 20.7192 30.0751 10.75 38.8266C10.752 38.8286 -1.84196 28.1118 2.21703 19.5371Z" fill="#D6AC29"/>
<path d="M10.4988 20.1983C12.1889 20.1983 13.6252 21.2995 14.1267 22.8207C14.2214 23.1101 14.5095 23.291 14.8096 23.2407C15.1823 23.1784 15.4079 22.7986 15.289 22.4409C14.6263 20.4334 12.7308 18.9785 10.4988 18.9785C8.26688 18.9785 6.36933 20.4334 5.70861 22.4409C5.58976 22.7986 5.81537 23.1804 6.18803 23.2407C6.48818 23.291 6.77624 23.1101 6.87091 22.8207C7.37249 21.2995 8.80875 20.1983 10.4988 20.1983Z" fill="white"/>
<path d="M10.5031 22.2139C11.2222 22.2139 11.8446 22.6379 12.1307 23.2488C12.2435 23.49 12.5114 23.6206 12.7773 23.5784C13.1782 23.5121 13.4058 23.08 13.2305 22.7143C12.7451 21.6975 11.7057 20.9941 10.5051 20.9941C9.29644 20.9941 8.25299 21.7055 7.77155 22.7304C7.60234 23.0901 7.82191 23.5101 8.21472 23.5744L8.22882 23.5764C8.49673 23.6206 8.76465 23.49 8.87745 23.2488C9.16148 22.6379 9.78393 22.2139 10.5031 22.2139Z" fill="white"/>
<path d="M10.499 18.0265C13.2648 18.0265 15.5975 19.9054 16.2864 22.4515C16.367 22.7489 16.6671 22.9317 16.9733 22.8815C17.3319 22.8212 17.5595 22.4655 17.4628 22.1159C16.6288 19.0594 13.8228 16.8047 10.497 16.8047C7.17128 16.8047 4.36927 19.0594 3.53531 22.1179C3.44063 22.4675 3.66624 22.8232 4.02481 22.8835C4.33099 22.9337 4.63114 22.7509 4.71171 22.4535C5.40063 19.9054 7.73329 18.0265 10.499 18.0265Z" fill="white"/>
<path d="M10.499 13C4.70964 13 0 17.6983 0 23.4737C0 25.3968 0.70705 27.4565 1.74245 29.4419C1.99223 29.9202 2.58647 30.0991 3.05381 29.8298C3.48892 29.5786 3.6541 29.03 3.42043 28.5859C2.50187 26.8436 1.87942 25.0732 1.87942 23.4716C1.87942 18.7292 5.74705 14.8709 10.501 14.8709C15.255 14.8709 19.1226 18.7292 19.1226 23.4716C19.1226 28.8069 12.3442 35.9187 10.503 37.7513C9.64691 36.8953 7.72317 34.8878 5.9082 32.4542C5.62014 32.0684 5.09036 31.9559 4.67137 32.197C4.18187 32.4783 4.04489 33.1254 4.3813 33.5776C6.9154 36.9857 9.64892 39.5479 9.86043 39.7448C10.0357 39.9076 10.2633 39.996 10.501 39.996C10.7387 39.996 10.9643 39.9076 11.1396 39.7468C11.5424 39.375 21.002 30.5673 21.002 23.4716C21 17.6983 16.2904 13 10.499 13Z" fill="white"/>
<path d="M3.82908 31.9518C4.30746 31.9518 4.69527 31.565 4.69527 31.0877C4.69527 30.6105 4.30746 30.2236 3.82908 30.2236C3.3507 30.2236 2.96289 30.6105 2.96289 31.0877C2.96289 31.565 3.3507 31.9518 3.82908 31.9518Z" fill="white"/>
<path d="M19.2653 39.5009H16.7335C16.6862 39.5009 16.6421 39.4805 16.6125 39.4461L15.0337 37.5867C15.0046 37.5523 14.9935 37.507 15.0037 37.4639L15.5672 35.1448C15.5778 35.1017 15.6083 35.0656 15.6507 35.0465L17.9325 34.0143C17.9749 33.9952 18.0243 33.9952 18.0667 34.0143L20.3481 35.0465C20.3905 35.0656 20.4214 35.1021 20.4316 35.1448L20.9951 37.4639C21.0057 37.507 20.9946 37.5523 20.9651 37.5867L19.3863 39.4465C19.3567 39.4805 19.3125 39.5009 19.2653 39.5009ZM16.8077 39.2105H19.1911L20.6771 37.4602L20.1463 35.2776L17.9992 34.3064L15.8525 35.2776L15.3221 37.4602L16.8077 39.2105Z" fill="white" stroke="black" stroke-width="0.7" stroke-linejoin="round"/>
<path d="M15.4809 36.4212V36.3382L15.4619 36.2573C15.5688 36.2312 18.5943 35.2724 19.7513 34.9053L19.8078 35.0625C15.5282 36.4212 15.4999 36.4212 15.4809 36.4212Z" fill="white"/>
<path d="M20.575 36.5876L15.6377 38.1025L15.6925 38.2603L20.6298 36.7453L20.575 36.5876Z" fill="white"/>
<path d="M16.9158 34.6813L16.7852 34.793L20.1687 38.287L20.2993 38.1754L16.9158 34.6813Z" fill="white"/>
<path d="M15.5261 36.3746L15.3965 36.4873L18.2605 39.3941L18.3901 39.2813L15.5261 36.3746Z" fill="white"/>
</g>
<g clip-path="url(#clip1)">
<path d="M2.21703 19.5371C2.21703 19.5371 2.87372 29.1226 10.0953 29.1226C17.3169 29.1226 20.0021 21.3819 20.0021 21.3819C20.0021 21.3819 20.7192 30.0751 10.75 38.8266C10.752 38.8286 -1.84196 28.1118 2.21703 19.5371Z" fill="#D6AC29"/>
<path d="M10.4988 20.1983C12.1889 20.1983 13.6252 21.2995 14.1267 22.8207C14.2214 23.1101 14.5095 23.291 14.8096 23.2407C15.1823 23.1784 15.4079 22.7986 15.289 22.4409C14.6263 20.4334 12.7308 18.9785 10.4988 18.9785C8.26688 18.9785 6.36933 20.4334 5.70861 22.4409C5.58976 22.7986 5.81537 23.1804 6.18803 23.2407C6.48818 23.291 6.77624 23.1101 6.87091 22.8207C7.37249 21.2995 8.80875 20.1983 10.4988 20.1983Z" fill="white"/>
<path d="M10.5031 22.2139C11.2222 22.2139 11.8446 22.6379 12.1307 23.2488C12.2435 23.49 12.5114 23.6206 12.7773 23.5784C13.1782 23.5121 13.4058 23.08 13.2305 22.7143C12.7451 21.6975 11.7057 20.9941 10.5051 20.9941C9.29644 20.9941 8.25299 21.7055 7.77155 22.7304C7.60234 23.0901 7.82191 23.5101 8.21472 23.5744L8.22882 23.5764C8.49673 23.6206 8.76465 23.49 8.87745 23.2488C9.16148 22.6379 9.78393 22.2139 10.5031 22.2139Z" fill="white"/>
<path d="M10.499 18.0265C13.2648 18.0265 15.5975 19.9054 16.2864 22.4515C16.367 22.7489 16.6671 22.9317 16.9733 22.8815C17.3319 22.8212 17.5595 22.4655 17.4628 22.1159C16.6288 19.0594 13.8228 16.8047 10.497 16.8047C7.17128 16.8047 4.36927 19.0594 3.53531 22.1179C3.44063 22.4675 3.66624 22.8232 4.02481 22.8835C4.33099 22.9337 4.63114 22.7509 4.71171 22.4535C5.40063 19.9054 7.73329 18.0265 10.499 18.0265Z" fill="white"/>
<path d="M10.499 13C4.70964 13 0 17.6983 0 23.4737C0 25.3968 0.70705 27.4565 1.74245 29.4419C1.99223 29.9202 2.58647 30.0991 3.05381 29.8298C3.48892 29.5786 3.6541 29.03 3.42043 28.5859C2.50187 26.8436 1.87942 25.0732 1.87942 23.4716C1.87942 18.7292 5.74705 14.8709 10.501 14.8709C15.255 14.8709 19.1226 18.7292 19.1226 23.4716C19.1226 28.8069 12.3442 35.9187 10.503 37.7513C9.64691 36.8953 7.72317 34.8878 5.9082 32.4542C5.62014 32.0684 5.09036 31.9559 4.67137 32.197C4.18187 32.4783 4.04489 33.1254 4.3813 33.5776C6.9154 36.9857 9.64892 39.5479 9.86043 39.7448C10.0357 39.9076 10.2633 39.996 10.501 39.996C10.7387 39.996 10.9643 39.9076 11.1396 39.7468C11.5424 39.375 21.002 30.5673 21.002 23.4716C21 17.6983 16.2904 13 10.499 13Z" fill="white"/>
<path d="M3.82908 31.9518C4.30746 31.9518 4.69527 31.565 4.69527 31.0877C4.69527 30.6105 4.30746 30.2236 3.82908 30.2236C3.3507 30.2236 2.96289 30.6105 2.96289 31.0877C2.96289 31.565 3.3507 31.9518 3.82908 31.9518Z" fill="white"/>
<path d="M19.2653 39.5009H16.7335C16.6862 39.5009 16.6421 39.4805 16.6125 39.4461L15.0337 37.5867C15.0046 37.5523 14.9935 37.507 15.0037 37.4639L15.5672 35.1448C15.5778 35.1017 15.6083 35.0656 15.6507 35.0465L17.9325 34.0143C17.9749 33.9952 18.0243 33.9952 18.0667 34.0143L20.3481 35.0465C20.3905 35.0656 20.4214 35.1021 20.4316 35.1448L20.9951 37.4639C21.0057 37.507 20.9946 37.5523 20.9651 37.5867L19.3863 39.4465C19.3567 39.4805 19.3125 39.5009 19.2653 39.5009ZM16.8077 39.2105H19.1911L20.6771 37.4602L20.1463 35.2776L17.9992 34.3064L15.8525 35.2776L15.3221 37.4602L16.8077 39.2105Z" fill="white" stroke="white" stroke-width="0.7" stroke-linejoin="round"/>
<path d="M15.4809 36.4212V36.3382L15.4619 36.2573C15.5688 36.2312 18.5943 35.2724 19.7513 34.9053L19.8078 35.0625C15.5282 36.4212 15.4999 36.4212 15.4809 36.4212Z" fill="white"/>
<path d="M20.575 36.5876L15.6377 38.1025L15.6925 38.2603L20.6298 36.7453L20.575 36.5876Z" fill="white"/>
<path d="M16.9158 34.6813L16.7852 34.793L20.1687 38.287L20.2993 38.1754L16.9158 34.6813Z" fill="white"/>
<path d="M15.5261 36.3746L15.3965 36.4873L18.2605 39.3941L18.3901 39.2813L15.5261 36.3746Z" fill="white"/>
</g>
<path d="M22 17C22 7.61116 29.6112 0 39 0H293C302.389 0 310 7.61116 310 17V35C310 44.3888 302.389 52 293 52H39C29.6112 52 22 44.3888 22 35V17Z" fill="#00122C"/>
<path d="M41.8341 36.3C39.0741 36.3 36.9341 35.59 35.4141 34.17C33.9141 32.75 33.1141 30.75 33.0141 28.17C32.9941 27.63 32.9841 26.75 32.9841 25.53C32.9841 24.29 32.9941 23.39 33.0141 22.83C33.1141 20.27 33.9241 18.28 35.4441 16.86C36.9841 15.42 39.1141 14.7 41.8341 14.7C43.6141 14.7 45.1641 15.01 46.4841 15.63C47.8041 16.23 48.8241 17.06 49.5441 18.12C50.2641 19.16 50.6441 20.34 50.6841 21.66V21.72C50.6841 21.88 50.6141 22.02 50.4741 22.14C50.3541 22.24 50.2141 22.29 50.0541 22.29H47.2041C46.9641 22.29 46.7841 22.24 46.6641 22.14C46.5441 22.04 46.4441 21.85 46.3641 21.57C46.0441 20.31 45.5141 19.43 44.7741 18.93C44.0341 18.41 43.0441 18.15 41.8041 18.15C38.9241 18.15 37.4241 19.76 37.3041 22.98C37.2841 23.52 37.2741 24.35 37.2741 25.47C37.2741 26.59 37.2841 27.44 37.3041 28.02C37.4241 31.24 38.9241 32.85 41.8041 32.85C43.0441 32.85 44.0341 32.59 44.7741 32.07C45.5341 31.55 46.0641 30.67 46.3641 29.43C46.4241 29.15 46.5141 28.96 46.6341 28.86C46.7741 28.76 46.9641 28.71 47.2041 28.71H50.0541C50.2341 28.71 50.3841 28.77 50.5041 28.89C50.6441 29.01 50.7041 29.16 50.6841 29.34C50.6441 30.66 50.2641 31.85 49.5441 32.91C48.8241 33.95 47.8041 34.78 46.4841 35.4C45.1641 36 43.6141 36.3 41.8341 36.3ZM51.2176 36C51.0576 36 50.9076 35.94 50.7676 35.82C50.6476 35.7 50.5876 35.55 50.5876 35.37L50.6476 35.1L57.8776 15.75C58.0176 15.25 58.3676 15 58.9276 15H62.1976C62.7176 15 63.0676 15.25 63.2476 15.75L70.4776 35.1C70.4976 35.16 70.5076 35.25 70.5076 35.37C70.5076 35.55 70.4476 35.7 70.3276 35.82C70.2076 35.94 70.0676 36 69.9076 36H67.2976C67.0376 36 66.8376 35.94 66.6976 35.82C66.5576 35.7 66.4676 35.57 66.4276 35.43L65.0176 31.77H56.1076L54.6976 35.43C54.5376 35.81 54.2476 36 53.8276 36H51.2176ZM63.9676 28.32L60.5476 19.05L57.1576 28.32H63.9676ZM72.5283 36C72.3283 36 72.1583 35.93 72.0183 35.79C71.8783 35.65 71.8083 35.48 71.8083 35.28V15.72C71.8083 15.5 71.8783 15.33 72.0183 15.21C72.1583 15.07 72.3283 15 72.5283 15H75.3183C75.5383 15 75.7083 15.07 75.8283 15.21C75.9683 15.33 76.0383 15.5 76.0383 15.72V32.43H85.5483C85.7683 32.43 85.9483 32.5 86.0883 32.64C86.2283 32.78 86.2983 32.96 86.2983 33.18V35.28C86.2983 35.5 86.2283 35.68 86.0883 35.82C85.9483 35.94 85.7683 36 85.5483 36H72.5283ZM88.4307 36C88.2307 36 88.0607 35.93 87.9207 35.79C87.7807 35.65 87.7107 35.48 87.7107 35.28V15.72C87.7107 15.5 87.7807 15.33 87.9207 15.21C88.0607 15.07 88.2307 15 88.4307 15H91.2507C91.4707 15 91.6407 15.07 91.7607 15.21C91.9007 15.33 91.9707 15.5 91.9707 15.72V35.28C91.9707 35.48 91.9007 35.65 91.7607 35.79C91.6407 35.93 91.4707 36 91.2507 36H88.4307ZM95.8955 36C95.6955 36 95.5255 35.93 95.3855 35.79C95.2455 35.65 95.1755 35.48 95.1755 35.28V15.75C95.1755 15.53 95.2355 15.35 95.3555 15.21C95.4955 15.07 95.6755 15 95.8955 15H104.596C106.936 15 108.676 15.52 109.816 16.56C110.976 17.58 111.556 18.98 111.556 20.76C111.556 21.8 111.296 22.69 110.776 23.43C110.276 24.15 109.686 24.67 109.006 24.99C109.846 25.37 110.546 25.99 111.106 26.85C111.686 27.71 111.976 28.69 111.976 29.79C111.976 31.65 111.346 33.15 110.086 34.29C108.846 35.43 107.096 36 104.836 36H95.8955ZM104.056 23.61C105.096 23.61 105.886 23.36 106.426 22.86C106.966 22.36 107.236 21.69 107.236 20.85C107.236 19.99 106.966 19.33 106.426 18.87C105.886 18.39 105.096 18.15 104.056 18.15H99.3455V23.61H104.056ZM104.356 32.82C105.396 32.82 106.206 32.54 106.786 31.98C107.366 31.4 107.656 30.67 107.656 29.79C107.656 28.89 107.366 28.16 106.786 27.6C106.206 27.02 105.396 26.73 104.356 26.73H99.3455V32.82H104.356ZM114.962 36C114.762 36 114.592 35.93 114.452 35.79C114.312 35.65 114.242 35.48 114.242 35.28V15.75C114.242 15.53 114.302 15.35 114.422 15.21C114.562 15.07 114.742 15 114.962 15H122.732C125.172 15 127.082 15.57 128.462 16.71C129.862 17.85 130.562 19.47 130.562 21.57C130.562 23.03 130.202 24.26 129.482 25.26C128.782 26.24 127.802 26.95 126.542 27.39L130.922 35.04C130.982 35.16 131.012 35.27 131.012 35.37C131.012 35.55 130.942 35.7 130.802 35.82C130.682 35.94 130.542 36 130.382 36H127.652C127.332 36 127.082 35.93 126.902 35.79C126.742 35.65 126.592 35.45 126.452 35.19L122.582 28.08H118.412V35.28C118.412 35.48 118.342 35.65 118.202 35.79C118.082 35.93 117.912 36 117.692 36H114.962ZM122.642 24.69C123.842 24.69 124.742 24.42 125.342 23.88C125.962 23.34 126.272 22.56 126.272 21.54C126.272 20.52 125.962 19.73 125.342 19.17C124.742 18.61 123.842 18.33 122.642 18.33H118.412V24.69H122.642ZM131.637 36C131.477 36 131.327 35.94 131.187 35.82C131.067 35.7 131.007 35.55 131.007 35.37L131.067 35.1L138.297 15.75C138.437 15.25 138.787 15 139.347 15H142.617C143.137 15 143.487 15.25 143.667 15.75L150.897 35.1C150.917 35.16 150.927 35.25 150.927 35.37C150.927 35.55 150.867 35.7 150.747 35.82C150.627 35.94 150.487 36 150.327 36H147.717C147.457 36 147.257 35.94 147.117 35.82C146.977 35.7 146.887 35.57 146.847 35.43L145.437 31.77H136.527L135.117 35.43C134.957 35.81 134.667 36 134.247 36H131.637ZM144.387 28.32L140.967 19.05L137.577 28.32H144.387ZM159.918 36.3C157.158 36.3 155.018 35.59 153.498 34.17C151.998 32.75 151.198 30.75 151.098 28.17C151.078 27.63 151.068 26.75 151.068 25.53C151.068 24.29 151.078 23.39 151.098 22.83C151.198 20.27 152.008 18.28 153.528 16.86C155.068 15.42 157.198 14.7 159.918 14.7C161.698 14.7 163.248 15.01 164.568 15.63C165.888 16.23 166.908 17.06 167.628 18.12C168.348 19.16 168.728 20.34 168.768 21.66V21.72C168.768 21.88 168.698 22.02 168.558 22.14C168.438 22.24 168.298 22.29 168.138 22.29H165.288C165.048 22.29 164.868 22.24 164.748 22.14C164.628 22.04 164.528 21.85 164.448 21.57C164.128 20.31 163.598 19.43 162.858 18.93C162.118 18.41 161.128 18.15 159.888 18.15C157.008 18.15 155.508 19.76 155.388 22.98C155.368 23.52 155.358 24.35 155.358 25.47C155.358 26.59 155.368 27.44 155.388 28.02C155.508 31.24 157.008 32.85 159.888 32.85C161.128 32.85 162.118 32.59 162.858 32.07C163.618 31.55 164.148 30.67 164.448 29.43C164.508 29.15 164.598 28.96 164.718 28.86C164.858 28.76 165.048 28.71 165.288 28.71H168.138C168.318 28.71 168.468 28.77 168.588 28.89C168.728 29.01 168.788 29.16 168.768 29.34C168.728 30.66 168.348 31.85 167.628 32.91C166.908 33.95 165.888 34.78 164.568 35.4C163.248 36 161.698 36.3 159.918 36.3ZM171.546 36C171.346 36 171.176 35.93 171.036 35.79C170.896 35.65 170.826 35.48 170.826 35.28V15.72C170.826 15.5 170.896 15.33 171.036 15.21C171.176 15.07 171.346 15 171.546 15H174.366C174.586 15 174.756 15.07 174.876 15.21C175.016 15.33 175.086 15.5 175.086 15.72V35.28C175.086 35.48 175.016 35.65 174.876 35.79C174.756 35.93 174.586 36 174.366 36H171.546ZM186.361 36.3C183.641 36.3 181.521 35.61 180.001 34.23C178.481 32.85 177.681 30.8 177.601 28.08C177.581 27.5 177.571 26.65 177.571 25.53C177.571 24.39 177.581 23.53 177.601 22.95C177.681 20.29 178.501 18.25 180.061 16.83C181.621 15.41 183.721 14.7 186.361 14.7C189.001 14.7 191.101 15.41 192.661 16.83C194.241 18.25 195.071 20.29 195.151 22.95C195.191 24.11 195.211 24.97 195.211 25.53C195.211 26.07 195.191 26.92 195.151 28.08C195.051 30.8 194.241 32.85 192.721 34.23C191.201 35.61 189.081 36.3 186.361 36.3ZM186.361 32.85C187.701 32.85 188.771 32.45 189.571 31.65C190.371 30.83 190.801 29.59 190.861 27.93C190.901 26.73 190.921 25.92 190.921 25.5C190.921 25.04 190.901 24.23 190.861 23.07C190.801 21.41 190.371 20.18 189.571 19.38C188.771 18.56 187.701 18.15 186.361 18.15C185.041 18.15 183.981 18.56 183.181 19.38C182.381 20.18 181.951 21.41 181.891 23.07C181.871 23.65 181.861 24.46 181.861 25.5C181.861 26.52 181.871 27.33 181.891 27.93C181.951 29.59 182.371 30.83 183.151 31.65C183.951 32.45 185.021 32.85 186.361 32.85ZM198.37 36C198.17 36 198 35.93 197.86 35.79C197.72 35.65 197.65 35.48 197.65 35.28V15.75C197.65 15.53 197.71 15.35 197.83 15.21C197.97 15.07 198.15 15 198.37 15H200.68C200.92 15 201.1 15.05 201.22 15.15C201.34 15.23 201.45 15.34 201.55 15.48L210.19 28.92V15.75C210.19 15.53 210.25 15.35 210.37 15.21C210.51 15.07 210.69 15 210.91 15H213.43C213.65 15 213.83 15.07 213.97 15.21C214.11 15.35 214.18 15.53 214.18 15.75V35.25C214.18 35.47 214.11 35.65 213.97 35.79C213.83 35.93 213.66 36 213.46 36H211.12C210.78 36 210.49 35.84 210.25 35.52L201.64 22.38V35.28C201.64 35.5 201.57 35.68 201.43 35.82C201.29 35.94 201.11 36 200.89 36H198.37ZM231.106 36.29C228.689 36.29 226.814 35.594 225.48 34.202C224.146 32.81 223.44 30.9443 223.363 28.605C223.343 28.025 223.334 27.1067 223.334 25.85C223.334 24.5933 223.343 23.675 223.363 23.095C223.44 20.7557 224.146 18.89 225.48 17.498C226.814 16.106 228.689 15.41 231.106 15.41C232.749 15.41 234.131 15.7193 235.253 16.338C236.374 16.9567 237.205 17.6913 237.747 18.542C238.307 19.3733 238.607 20.1177 238.646 20.775V20.833C238.646 20.9877 238.588 21.1133 238.472 21.21C238.356 21.3067 238.211 21.355 238.037 21.355H237.399C237.225 21.355 237.099 21.3163 237.022 21.239C236.944 21.1617 236.867 21.007 236.79 20.775C236.461 19.7503 235.823 18.89 234.876 18.194C233.948 17.498 232.691 17.15 231.106 17.15C229.308 17.15 227.887 17.643 226.843 18.629C225.818 19.615 225.267 21.152 225.19 23.24C225.17 23.82 225.161 24.69 225.161 25.85C225.161 27.01 225.17 27.88 225.19 28.46C225.267 30.548 225.818 32.085 226.843 33.071C227.887 34.057 229.308 34.55 231.106 34.55C232.904 34.55 234.354 34.0377 235.456 33.013C236.558 31.9883 237.109 30.4707 237.109 28.46V26.981H232.063C231.869 26.981 231.715 26.923 231.599 26.807C231.483 26.6717 231.425 26.5073 231.425 26.314V25.908C231.425 25.7147 231.483 25.56 231.599 25.444C231.715 25.3087 231.869 25.241 232.063 25.241H238.269C238.481 25.241 238.646 25.299 238.762 25.415C238.878 25.531 238.936 25.6953 238.936 25.908V28.46C238.936 30.0067 238.626 31.3697 238.008 32.549C237.389 33.7283 236.49 34.6467 235.311 35.304C234.131 35.9613 232.73 36.29 231.106 36.29ZM244.621 36C244.428 36 244.273 35.942 244.157 35.826C244.041 35.71 243.983 35.5553 243.983 35.362V16.367C243.983 16.1737 244.041 16.019 244.157 15.903C244.273 15.7677 244.428 15.7 244.621 15.7H251.668C253.737 15.7 255.361 16.222 256.54 17.266C257.739 18.2907 258.338 19.7697 258.338 21.703C258.338 23.6363 257.739 25.125 256.54 26.169C255.361 27.1937 253.737 27.706 251.668 27.706H245.81V35.362C245.81 35.5553 245.743 35.71 245.607 35.826C245.491 35.942 245.337 36 245.143 36H244.621ZM251.523 25.966C253.186 25.966 254.433 25.6083 255.264 24.893C256.096 24.1583 256.511 23.095 256.511 21.703C256.511 20.311 256.096 19.2573 255.264 18.542C254.433 17.8073 253.186 17.44 251.523 17.44H245.81V25.966H251.523ZM268.863 36.29C267.355 36.29 266.041 36.0483 264.919 35.565C263.817 35.0623 262.967 34.4147 262.367 33.622C261.787 32.8293 261.478 31.9787 261.439 31.07C261.439 30.9153 261.497 30.78 261.613 30.664C261.729 30.548 261.874 30.49 262.048 30.49H262.628C262.976 30.49 263.189 30.6833 263.266 31.07C263.402 31.998 263.933 32.81 264.861 33.506C265.789 34.202 267.123 34.55 268.863 34.55C270.7 34.55 272.063 34.2213 272.952 33.564C273.861 32.8873 274.315 31.9497 274.315 30.751C274.315 30.0163 274.093 29.417 273.648 28.953C273.223 28.4697 272.595 28.054 271.763 27.706C270.932 27.3387 269.675 26.8843 267.993 26.343C266.505 25.8597 265.335 25.386 264.484 24.922C263.653 24.458 263.034 23.8877 262.628 23.211C262.222 22.5343 262.019 21.674 262.019 20.63C262.019 19.644 262.28 18.7547 262.802 17.962C263.344 17.1693 264.117 16.5507 265.122 16.106C266.128 15.642 267.326 15.41 268.718 15.41C270.149 15.41 271.377 15.671 272.401 16.193C273.426 16.6957 274.199 17.3433 274.721 18.136C275.243 18.9093 275.524 19.6923 275.562 20.485C275.562 20.6397 275.504 20.775 275.388 20.891C275.292 21.007 275.147 21.065 274.953 21.065H274.373C274.238 21.065 274.103 21.0263 273.967 20.949C273.832 20.8523 273.755 20.6977 273.735 20.485C273.619 19.5183 273.097 18.7257 272.169 18.107C271.261 17.469 270.11 17.15 268.718 17.15C267.23 17.15 266.041 17.44 265.151 18.02C264.281 18.6 263.846 19.47 263.846 20.63C263.846 21.384 264.04 22.0123 264.426 22.515C264.832 22.9983 265.432 23.4237 266.224 23.791C267.017 24.139 268.187 24.5643 269.733 25.067C271.319 25.5697 272.556 26.053 273.445 26.517C274.335 26.981 275.002 27.5417 275.446 28.199C275.91 28.8563 276.142 29.707 276.142 30.751C276.142 32.491 275.495 33.854 274.199 34.84C272.904 35.8067 271.125 36.29 268.863 36.29Z" fill="white"/>
<defs>
<clipPath id="clip0">
<rect y="13" width="21" height="27" fill="white"/>
</clipPath>
<clipPath id="clip1">
<rect y="13" width="21" height="27" fill="white"/>
</clipPath>
</defs>
</svg>
