<svg width="70" height="70" viewBox="0 0 70 70" fill="none" xmlns="http://www.w3.org/2000/svg">
<rect width="70" height="70" fill="#005A64"/>
<path d="M56.1198 41.2914C56.0403 41.2914 55.9677 41.2492 55.9271 41.18L44.6337 21.6447C44.3818 21.2108 43.9135 20.9407 43.4114 20.9407H42.2263C41.7242 20.9407 41.2559 21.2108 41.004 21.6447L34.3277 33.191C34.162 33.4763 33.8662 33.6468 33.5365 33.6468C33.2034 33.6468 32.9076 33.4746 32.7419 33.1859L28.5035 25.7456C28.2533 25.3067 27.7833 25.0331 27.2778 25.0331H26.1062C25.6041 25.0331 25.1358 25.3033 24.8839 25.7372L22.4224 30.0001C22.4054 30.0288 22.4054 30.066 22.4224 30.0947C22.4393 30.1234 22.4714 30.1419 22.5052 30.1419H25.2254C26.4579 30.1419 27.4587 31.1431 27.4587 32.3722V33.3902C27.4587 33.5118 27.359 33.6114 27.2372 33.6114H20.3885C20.3547 33.6114 20.3226 33.63 20.3057 33.6587L19.2846 35.4246C19.2677 35.4533 19.2677 35.4905 19.2846 35.5192C19.3015 35.5479 19.3336 35.5664 19.3674 35.5664H28.3091C29.5416 35.5664 30.5424 36.5676 30.5424 37.7967V38.813C30.5424 38.9346 30.4427 39.0342 30.3209 39.0342H17.2507C17.2169 39.0342 17.1848 39.0528 17.1679 39.0815L15.9574 41.175C15.9185 41.2442 15.8442 41.2864 15.7647 41.2864H11.883C11.8036 41.2864 11.7309 41.2442 11.6903 41.175C11.6514 41.1074 11.6514 41.0213 11.6903 40.9538L22.3277 22.5598C22.8011 21.741 23.6819 21.2328 24.6286 21.2328H28.7689C29.7225 21.2328 30.6066 21.746 31.0783 22.5733L33.4739 26.7788C33.4908 26.8092 33.523 26.8261 33.5568 26.8261C33.5906 26.8261 33.6227 26.8075 33.6396 26.7788L38.4477 18.464C38.9211 17.6452 39.8019 17.1387 40.7487 17.1387H44.8924C45.8391 17.1387 46.72 17.6468 47.1933 18.4657L60.1976 40.9589C60.2365 41.0264 60.2365 41.1125 60.1976 41.18C60.1587 41.2492 60.0843 41.2914 60.0049 41.2914H56.1198Z" fill="#D7AB03"/>
<path d="M23.9171 45.1602H20.6509L18.1437 49.4974L15.6365 45.1602H12.3702H11.5469V56.6676H14.4023V48.6752L17.0532 53.2606H19.2341L21.885 48.6752V56.6676H24.7405V45.1602H23.9171Z" fill="white"/>
<path d="M28.5987 48.5045C28.5987 47.9305 29.0907 47.4713 30.4533 47.4713C31.3612 47.4713 32.335 47.7161 33.3274 48.2006L34.6325 45.9434C33.4998 45.29 31.9597 44.9473 30.4685 44.9473C27.0535 44.9473 25.3798 46.6187 25.3798 48.6683C25.3798 52.9312 31.914 51.6025 31.914 53.4225C31.914 53.9797 31.3882 54.3578 30.0425 54.3578C28.8134 54.3578 27.4897 53.9628 26.4922 53.3719L25.1904 55.6241C26.2741 56.3753 28.1423 56.8818 30.0273 56.8818C33.4423 56.8818 35.1161 55.1767 35.1161 53.176C35.1161 48.9468 28.5987 50.257 28.5987 48.5045Z" fill="white"/>
<path d="M59.5168 45.1602H56.2505L53.7433 49.4974L51.2361 45.1602H47.9698H47.1465V56.6676H50.0019V48.6752L52.6528 53.2606H54.8337L57.4846 48.6752V56.6676H60.3401V45.1602H59.5168Z" fill="white"/>
<path d="M41.3545 56.6676H44.2522V53.919H41.3545V56.6676ZM44.2522 51.4896V53.919H47.1702V51.4896H44.2522ZM39.1533 51.4896L41.3545 48.3358V51.4896H44.2522V45.1602H43.5709H41.3545H40.3942L35.5303 51.9201C35.6537 52.2865 35.723 52.7018 35.723 53.1762C35.723 53.4294 35.6993 53.6776 35.6537 53.919H41.3545V51.4896H39.1533Z" fill="white"/>
</svg>
