<?xml version="1.0" encoding="UTF-8"?>
<svg className="menu-icon" viewBox="0 0 41 37" fill="none" xmlns="http://www.w3.org/2000/svg">
<path d="M7.04345 7.28583C5.40094 12.4037 2.23186 24.7831 2.69563 33.3579C2.69563 36.3141 18.7343 35.7484 26.7536 35.096L28.7826 7.28583L20.3768 1.78174L7.04345 7.28583Z" fill="white"/>
<path d="M20.9564 1.49219V35.0961H37.995L38.9274 30.1354L35.1995 10.6131L29.9419 4.85266L20.9564 1.49219Z" fill="#D7AB03"/>
<path d="M20.7422 3.82468V3.85066C22.8191 4.21604 27.8277 5.63535 32.4608 8.64853C37.2084 21.3045 37.5017 30.3847 37.0554 33.3435H20.7422H20.5923H4.2791C3.83278 30.3855 4.12603 21.3045 8.87361 8.64853C13.5068 5.63616 18.5154 4.21604 20.5923 3.85066V3.82468C20.6157 3.82874 20.6423 3.83361 20.6672 3.83767C20.6914 3.83361 20.718 3.82874 20.7422 3.82468ZM20.7422 0.333252C20.7172 0.333252 20.6922 0.333252 20.6672 0.334064C20.6423 0.333252 20.6173 0.333252 20.5923 0.333252C20.2354 0.333252 19.8817 0.389277 19.5442 0.497268C18.5984 0.68889 16.8171 1.11679 14.4937 1.98072C11.7747 2.99161 9.25225 4.24771 6.99649 5.71411C6.37293 6.11928 5.89519 6.71444 5.63336 7.41354C0.695654 20.577 0.306535 30.2353 0.854363 33.868C1.11216 35.5739 2.56713 36.8341 4.2791 36.8341H20.5915H20.7413H37.0537C38.7657 36.8341 40.2207 35.5739 40.4785 33.868C41.0271 30.2361 40.638 20.577 35.7003 7.41354C35.4385 6.71525 34.9607 6.11928 34.338 5.71411C32.0822 4.24771 29.5598 2.99161 26.8408 1.98072C24.5165 1.11679 22.7361 0.68889 21.7903 0.497268C21.4527 0.389277 21.099 0.333252 20.7422 0.333252Z" fill="#00122C"/>
</svg>
