<?xml version="1.0" encoding="UTF-8"?>
<svg className="menu-icon" viewBox="0 0 49 34" fill="none" xmlns="http://www.w3.org/2000/svg">
<g clip-path="url(#clip0)">
<path d="M10.4834 24.6259L14.2 15.7986L18.5693 19.1851L14.5232 26.4635L10.4834 24.6259Z" fill="#D7AB03"/>
<path d="M24.7974 31.527L27.2316 20.5435H31.9588L31.0254 32.1281L24.7974 31.527Z" fill="#D7AB03"/>
<path d="M40.3101 20.8188V28.7706L43.4023 27.7552L44.5577 21.5924L40.3101 20.8188Z" fill="#D7AB03"/>
<path d="M40.3101 14.842L40.8616 7.32886H46.4058L43.8641 16.7202L40.3101 14.842Z" fill="#D7AB03"/>
<path d="M25.7139 2.48659L26.5389 15.4847H31.9588V1.76001L25.7139 2.48659Z" fill="#D7AB03"/>
<path d="M31.9588 17.2447H22.5479C22.2016 17.2447 21.8632 17.1391 21.5764 16.9414L15.6227 12.8419C15.1467 12.5142 14.8625 11.9682 14.8625 11.3851V3.54797C14.8625 2.65351 15.5224 1.90076 16.3971 1.79967L31.7617 0.0116534C32.2519 -0.0461119 32.743 0.112743 33.1115 0.446699C33.4801 0.780654 33.6905 1.25812 33.6905 1.75996V15.4846C33.6905 16.4567 32.9153 17.2447 31.9588 17.2447ZM23.079 13.7246H30.2271V3.733L18.3251 5.11847V10.4518L23.079 13.7246Z" fill="#00122C"/>
<path d="M14.5221 28.2245C14.285 28.2245 14.0444 28.1748 13.8152 28.0701L1.69039 22.5526C1.12913 22.2972 0.742823 21.7584 0.676217 21.1365C0.609612 20.5146 0.872481 19.9045 1.36714 19.5317L10.723 12.4879C11.3428 12.0213 12.1909 12.0276 12.8037 12.5024L19.6188 17.7852C20.3061 18.3186 20.5015 19.2853 20.0761 20.0507L16.0301 27.3291C15.7148 27.8986 15.1296 28.2245 14.5221 28.2245ZM5.80838 20.5697L13.7913 24.2026L16.3187 19.6554L11.7389 16.1055L5.80838 20.5697Z" fill="#00122C"/>
<path d="M31.0252 33.8879C30.9711 33.8879 30.916 33.8852 30.8618 33.8798L17.4724 32.5882C16.8889 32.5323 16.3729 32.1793 16.1012 31.6513C15.8294 31.1233 15.8392 30.4915 16.1269 29.9725L21.8337 19.6795C22.141 19.1262 22.7173 18.7832 23.3425 18.7832H31.9577C32.4417 18.7832 32.9035 18.989 33.2312 19.3509C33.5589 19.7129 33.7232 20.1976 33.6832 20.6868L32.7499 32.2705C32.7126 32.7399 32.4906 33.174 32.1362 33.4764C31.8245 33.7435 31.4302 33.8879 31.0252 33.8879ZM20.4536 29.3398L29.4427 30.2063L30.0794 22.3024H24.3549L20.4536 29.3398Z" fill="#00122C"/>
<path d="M43.8659 18.4813C43.7389 18.4813 43.6102 18.4668 43.4814 18.4371L37.0136 16.9451C36.2569 16.7709 35.7072 16.1066 35.6672 15.3195L35.2676 7.42012C35.2436 6.93814 35.4141 6.46699 35.7418 6.11769C36.0695 5.76839 36.5225 5.56982 36.9976 5.56982H46.4067C46.9466 5.56982 47.4564 5.82616 47.7841 6.26301C48.1118 6.69986 48.2201 7.26668 48.0763 7.7965L45.5355 17.1879C45.3232 17.965 44.6288 18.4813 43.8659 18.4813ZM39.0579 13.8077L42.6333 14.6318L44.1332 9.089H38.8199L39.0579 13.8077Z" fill="#00122C"/>
<path d="M36.0633 31.926C35.6797 31.926 35.3005 31.796 34.9914 31.5487C34.5376 31.1859 34.2925 30.6164 34.3369 30.0315L35.0918 20.0489C35.1291 19.5525 35.3715 19.0958 35.7587 18.7916C36.1459 18.4874 36.6415 18.3638 37.1237 18.4513L44.8624 19.8603C45.3179 19.9433 45.7211 20.2078 45.984 20.595C46.246 20.9822 46.3454 21.4596 46.2584 21.9218L45.103 28.0846C44.9849 28.7164 44.5364 29.2318 43.9343 29.4304L36.5953 31.8412C36.4221 31.898 36.2418 31.926 36.0633 31.926ZM38.3981 22.2593L37.9878 27.6848L41.8926 26.4022L42.5276 23.0121L38.3981 22.2593Z" fill="#00122C"/>
</g>
<defs>
<clipPath id="clip0">
<rect x="0.666504" width="47.4709" height="33.8884" fill="white"/>
</clipPath>
</defs>
</svg>
