<?xml version="1.0" encoding="UTF-8" standalone="no"?>
<svg id="main_logo" viewBox="0 0 66 54" fill="none" xmlns="http://www.w3.org/2000/svg">
<path d="M59.8271 32.5714C59.7211 32.5714 59.6242 32.5151 59.5701 32.4227L44.5123 6.34777C44.1764 5.76863 43.552 5.40807 42.8825 5.40807H41.3024C40.6329 5.40807 40.0085 5.76863 39.6726 6.34777L30.7709 21.7593C30.55 22.1401 30.1555 22.3677 29.716 22.3677C29.2719 22.3677 28.8774 22.1378 28.6565 21.7525L23.0053 11.8215C22.6717 11.2355 22.0451 10.8705 21.3711 10.8705H19.8089C19.1395 10.8705 18.5151 11.231 18.1792 11.8102L14.8971 17.5002C14.8746 17.5385 14.8746 17.5881 14.8971 17.6264C14.9197 17.6647 14.9625 17.6895 15.0076 17.6895H18.6345C20.2778 17.6895 21.6123 19.0258 21.6123 20.6663V22.0252C21.6123 22.1874 21.4793 22.3204 21.317 22.3204H12.1854C12.1403 22.3204 12.0975 22.3452 12.0749 22.3835L10.7134 24.7406C10.6909 24.7789 10.6909 24.8285 10.7134 24.8668C10.7359 24.9051 10.7788 24.9299 10.8239 24.9299H22.7461C24.3894 24.9299 25.7239 26.2662 25.7239 27.9067V29.2633C25.7239 29.4256 25.5909 29.5585 25.4286 29.5585H8.00165C7.95656 29.5585 7.91373 29.5833 7.89119 29.6216L6.27721 32.4159C6.22537 32.5083 6.12619 32.5647 6.02024 32.5647H0.844687C0.738741 32.5647 0.641812 32.5083 0.587712 32.4159C0.535867 32.3258 0.535867 32.2109 0.587712 32.1207L14.7709 7.56915C15.4021 6.47622 16.5765 5.79792 17.8388 5.79792H23.3592C24.6306 5.79792 25.8095 6.48298 26.4384 7.58718L29.6326 13.2006C29.6551 13.2411 29.6979 13.2637 29.743 13.2637C29.7881 13.2637 29.8309 13.2389 29.8535 13.2006L36.2643 2.10223C36.8955 1.00929 38.0699 0.333252 39.3322 0.333252H44.8572C46.1195 0.333252 47.2939 1.01155 47.9251 2.10448L65.2641 32.1275C65.3159 32.2176 65.3159 32.3326 65.2641 32.4227C65.2122 32.5151 65.1131 32.5714 65.0071 32.5714H59.8271Z" fill="#D7AB03"/>
<path d="M16.8894 37.7354H12.5344L9.19148 43.5245L5.84857 37.7354H1.49353H0.395752V53.095H4.20303V42.4271L7.73755 48.5475H10.6454L14.1799 42.4271V53.095H17.9872V37.7354H16.8894Z" fill="white"/>
<path d="M23.1312 42.1985C23.1312 41.4323 23.7871 40.8194 25.604 40.8194C26.8145 40.8194 28.1129 41.1461 29.4361 41.7929L31.1763 38.78C29.666 37.9079 27.6125 37.4504 25.6243 37.4504C21.0709 37.4504 18.8393 39.6814 18.8393 42.4171C18.8393 48.1071 27.5516 46.3336 27.5516 48.7629C27.5516 49.5065 26.8505 50.0113 25.0562 50.0113C23.4175 50.0113 21.6525 49.484 20.3225 48.6953L18.5868 51.7014C20.0317 52.7042 22.5226 53.3802 25.0359 53.3802C29.5894 53.3802 31.821 51.1042 31.821 48.4339C31.821 42.7889 23.1312 44.5376 23.1312 42.1985Z" fill="white"/>
<path d="M64.3559 37.7344H60.0008L56.6579 43.5235L53.315 37.7344H48.96H47.8622V53.094H51.6695V42.4261L55.204 48.5465H58.1119L61.6464 42.4261V53.094H65.4536V37.7344H64.3559Z" fill="white"/>
<path d="M40.1395 53.094H44.0031V49.4254H40.1395V53.094ZM44.0031 46.1826V49.4254H47.8938V46.1826H44.0031ZM37.2046 46.1826L40.1395 41.9732V46.1826H44.0031V37.7344H43.0947H40.1395H38.8591L32.3739 46.7573C32.5385 47.2463 32.6309 47.8006 32.6309 48.4339C32.6309 48.7719 32.5993 49.1031 32.5385 49.4254H40.1395V46.1826H37.2046Z" fill="white"/>
</svg>
