<?xml version="1.0" encoding="UTF-8"?>
<svg className="menu-icon" viewBox="0 0 35 31" fill="none" xmlns="http://www.w3.org/2000/svg">
<path d="M2.6822 29.0248H33.303V2.04272H30.3844L22.5562 13.3075L18.3047 13.8004L11.3075 23.2065L6.80715 19.7398L2.31104 25.8045L2.6822 29.0248Z" fill="#D7AB03"/>
<path d="M2.43294 26.7733C2.1166 26.7733 1.79606 26.6731 1.52612 26.4642C0.880804 25.9672 0.766925 25.0483 1.26884 24.4134L5.64264 18.8458C6.14455 18.2109 7.07246 18.094 7.71355 18.591L11.0161 21.1347L17.1149 12.9356C17.3933 12.5597 17.8361 12.3425 18.3043 12.3425H21.0712L26.1282 5.7432C26.6217 5.09997 27.5454 4.97467 28.1949 5.46335C28.8445 5.95204 28.971 6.86675 28.4775 7.50998L22.9818 14.6857C22.7034 15.0491 22.269 15.2621 21.805 15.2621H19.0509L12.4965 24.0709C12.2603 24.3884 11.906 24.5972 11.5095 24.6515C11.1131 24.7058 10.7166 24.6014 10.4003 24.3591L7.06824 21.7904L3.59703 26.2053C3.30601 26.577 2.87158 26.7733 2.43294 26.7733Z" fill="#00122C"/>
<path d="M3.28547 11.0561V1.83371C3.28547 1.13618 2.80886 0.501311 2.11714 0.363476C1.16813 0.175521 0.333008 0.889752 0.333008 1.79612V11.0561C0.333008 11.8622 0.995203 12.5179 1.80924 12.5179C2.62328 12.5179 3.28547 11.8622 3.28547 11.0561Z" fill="#00122C"/>
<path d="M33.4803 27.5123H3.28543V14.9694C3.28543 14.1633 2.62324 13.5076 1.80922 13.5076C0.995194 13.5076 0.333008 14.1633 0.333008 14.9694V28.9784C0.333008 29.7845 0.995194 30.4403 1.80922 30.4403H33.5225C34.4377 30.4403 35.1589 29.6133 34.9691 28.6735C34.8257 27.9885 34.1846 27.5123 33.4803 27.5123Z" fill="#00122C"/>
<path d="M30.178 4.33136C31.0749 4.33136 31.8019 3.61141 31.8019 2.7233C31.8019 1.83519 31.0749 1.11523 30.178 1.11523C29.2812 1.11523 28.5542 1.83519 28.5542 2.7233C28.5542 3.61141 29.2812 4.33136 30.178 4.33136Z" fill="#00122C"/>
</svg>
