<?xml version="1.0" encoding="UTF-8"?>
<svg className="settings-icon" width="36" height="36" viewBox="0 0 36 36" fill="none" xmlns="http://www.w3.org/2000/svg">
<path d="M29.0682 13.7881L29.0681 13.7881L29.071 13.795C29.4215 14.6502 30.303 15.1468 31.2101 15.0231L31.2174 15.0221L31.2246 15.021L33.7241 14.6427C34.1306 16.7842 34.095 18.9419 33.6669 21.0008L31.1726 20.5765L31.1718 20.5764C30.2552 20.4213 29.3708 20.9176 29.0087 21.7532L29.0063 21.7587L28.4809 22.9915C28.4809 22.9915 28.4809 22.9916 28.4809 22.9916C28.1185 23.842 28.3824 24.8293 29.1302 25.3797C29.1303 25.3798 29.1303 25.3798 29.1304 25.3799L31.1647 26.8775C29.9828 28.6177 28.4518 30.1416 26.6273 31.3365L25.1659 29.2773L25.1631 29.2733C24.6328 28.5338 23.6545 28.2344 22.7917 28.5857C22.7903 28.5863 22.7888 28.5869 22.7874 28.5875L21.5545 29.082L21.5545 29.082L21.5475 29.0848C20.6981 29.433 20.1887 30.3154 20.3286 31.2318C20.3288 31.2325 20.3289 31.2332 20.329 31.2339L20.7068 33.731C18.5654 34.1375 16.4077 34.1019 14.3488 33.6738L14.773 31.1795L14.7732 31.1787C14.9283 30.2621 14.432 29.3776 13.5964 29.0155L13.5908 29.0131L12.3581 28.4878C12.358 28.4878 12.358 28.4878 12.358 28.4878C11.5076 28.1253 10.5203 28.3892 9.96983 29.1371C9.96979 29.1372 9.96975 29.1372 9.9697 29.1373L8.47211 31.1715C6.73184 29.9897 5.20793 28.4586 4.01309 26.6341L6.07229 25.1728L6.07622 25.17C6.81591 24.6396 7.11519 23.6611 6.76372 22.7983C6.76317 22.7969 6.76262 22.7956 6.76208 22.7942L6.26755 21.5613L6.26757 21.5613L6.26474 21.5544C5.91647 20.7046 5.03343 20.1951 4.11663 20.3357C4.1163 20.3357 4.11597 20.3358 4.11564 20.3358L1.61858 20.7137C1.21209 18.5723 1.2477 16.4145 1.6758 14.3557L4.17007 14.7799L4.17089 14.7801C5.07605 14.9332 5.97937 14.449 6.33773 13.5947L6.8608 12.3672C7.22846 11.5146 6.95319 10.5236 6.20785 9.97145L6.20547 9.9697L4.17102 8.47198C5.35291 6.73172 6.88394 5.20781 8.70842 4.01297L10.1698 6.07216L10.1698 6.07217L10.1726 6.0761C10.7029 6.81576 11.6814 7.11504 12.5442 6.76362L13.7812 6.26742L13.7812 6.26745L13.7882 6.26461C14.6378 5.91641 15.1473 5.0336 15.007 4.11697C15.0069 4.11649 15.0068 4.116 15.0067 4.11552L14.6289 1.61846C16.7703 1.21197 18.928 1.24758 20.9869 1.67568L20.5627 4.16995L20.5625 4.17077C20.4074 5.08734 20.9037 5.97182 21.7393 6.33391L21.7393 6.33393L21.7449 6.33631L22.9776 6.86164C22.9777 6.86165 22.9777 6.86166 22.9777 6.86167C23.8281 7.22411 24.8154 6.9602 25.3659 6.21235C25.3659 6.21229 25.366 6.21224 25.366 6.21218L26.8636 4.1779C28.6039 5.35979 30.1278 6.89082 31.3226 8.7153L29.2634 10.1766L29.2595 10.1795C28.5198 10.7098 28.2205 11.6883 28.572 12.5511C28.5725 12.5525 28.5731 12.5538 28.5736 12.5552L29.0682 13.7881ZM25.5228 14.4982L25.5225 14.4976C23.7675 10.1617 18.8279 8.06452 14.4907 9.82005C10.1548 11.5751 8.05764 16.5146 9.81317 20.8518C11.5681 25.1875 16.5072 27.2847 20.8442 25.5297C25.1822 23.7813 27.2772 18.8407 25.5228 14.4982Z" stroke="#4F4F4F" stroke-width="2"/>
</svg>
