<?xml version="1.0" encoding="UTF-8"?>
<svg id="tps_logo" viewBox="0 0 251 67" fill="none" xmlns="http://www.w3.org/2000/svg">
<path d="M93.9473 4.85783H88.6605V1.02502H104.077V4.85783H98.8155V18.1127H93.9473V4.85783Z" fill="white"/>
<path d="M117.518 12.6688H107.831C108.224 14.0111 109.379 14.7923 111.101 14.7923C112.404 14.7923 113.265 14.4266 114.175 13.6454L116.634 16.1844C115.355 17.6001 113.486 18.3329 110.953 18.3329C106.208 18.3329 103.134 15.4281 103.134 11.4734C103.134 7.49518 106.257 4.66248 110.461 4.66248C114.395 4.66248 117.591 7.15165 117.591 11.5219C117.592 11.8627 117.543 12.3018 117.518 12.6688ZM107.758 10.2281H113.216C112.971 8.83742 111.938 7.95783 110.487 7.95783C109.036 7.95783 108.027 8.83604 107.758 10.2281Z" fill="white"/>
<path d="M133.303 12.6688H123.616C124.009 14.0111 125.164 14.7923 126.886 14.7923C128.189 14.7923 129.05 14.4266 129.96 13.6454L132.419 16.1844C131.141 17.6001 129.271 18.3329 126.738 18.3329C121.993 18.3329 118.919 15.4281 118.919 11.4734C118.919 7.49518 122.042 4.66248 126.246 4.66248C130.181 4.66248 133.376 7.15165 133.376 11.5219C133.377 11.8627 133.327 12.3018 133.303 12.6688ZM123.542 10.2281H129C128.755 8.83742 127.722 7.95783 126.271 7.95783C124.82 7.95783 123.812 8.83604 123.542 10.2281Z" fill="white"/>
<path d="M144.735 17.5751C143.924 18.0877 142.719 18.3315 141.489 18.3315C138.071 18.3315 136.08 16.672 136.08 13.2783V8.83602H134.138V5.37029H136.08V1.9281H140.751V5.37029H143.8V8.83602H140.751V13.2298C140.751 14.2064 141.316 14.7438 142.154 14.7438C142.67 14.7438 143.186 14.597 143.58 14.3283L144.735 17.5751Z" fill="white"/>
<path d="M160.715 10.5454V18.1127H156.044V11.3017C156.044 9.39848 155.208 8.5923 153.856 8.5923C152.356 8.5923 151.201 9.52037 151.201 11.7173V18.1127H146.529V0H151.201V6.10312C152.233 5.1515 153.636 4.66253 155.208 4.66253C158.331 4.66253 160.715 6.44388 160.715 10.5454Z" fill="white"/>
<path d="M105.799 29.3133C105.799 33.1946 102.848 35.6104 98.1527 35.6104H95.1528V40.0776H90.2846V22.9913H98.1527C102.848 22.9913 105.799 25.4085 105.799 29.3133ZM100.882 29.3133C100.882 27.7259 99.8732 26.7992 97.8583 26.7992H95.1528V31.8039H97.8583C99.8732 31.8039 100.882 30.8758 100.882 29.3133Z" fill="white"/>
<path d="M120.757 34.6352H111.069C111.463 35.9774 112.618 36.7586 114.34 36.7586C115.643 36.7586 116.504 36.393 117.413 35.6117L119.872 38.1508C118.594 39.5664 116.724 40.2992 114.192 40.2992C109.446 40.2992 106.372 37.3944 106.372 33.4397C106.372 29.4615 109.495 26.6288 113.699 26.6288C117.634 26.6288 120.829 29.118 120.829 33.4882C120.831 33.829 120.782 34.2681 120.757 34.6352ZM110.996 32.1945H116.455C116.209 30.8037 115.177 29.9241 113.726 29.9241C112.275 29.9241 111.266 30.8023 110.996 32.1945Z" fill="white"/>
<path d="M130.866 26.6288V30.8023C130.447 30.7539 130.153 30.7289 129.808 30.7289C127.915 30.7289 126.611 31.6806 126.611 33.9994V40.0776H121.94V26.8476H126.391V28.4351C127.349 27.2383 128.898 26.6288 130.866 26.6288Z" fill="white"/>
<path d="M138.624 27.3366H141.795V30.8023H138.746V40.0775H134.075V30.8023H132.133V27.3366H134.075V26.9944C134.075 23.821 136.066 21.746 139.632 21.746C140.764 21.746 141.968 21.9662 142.73 22.4289L141.575 25.6993C141.181 25.479 140.665 25.3087 140.172 25.3087C139.189 25.3087 138.624 25.8697 138.624 27.0415V27.3366Z" fill="white"/>
<path d="M167.261 26.6288V30.8023C166.842 30.7539 166.548 30.7289 166.203 30.7289C164.31 30.7289 163.007 31.6806 163.007 33.9994V40.0776H158.335V26.8476H162.786V28.4351C163.745 27.2383 165.295 26.6288 167.261 26.6288Z" fill="white"/>
<path d="M191.571 32.5116V40.0789H186.9V33.2679C186.9 31.3647 186.113 30.5585 184.883 30.5585C183.531 30.5585 182.548 31.4616 182.548 33.5117V40.0775H177.876V33.2665C177.876 31.3633 177.114 30.5571 175.86 30.5571C174.483 30.5571 173.499 31.4602 173.499 33.5103V40.0761H168.828V26.8462H173.279V28.2383C174.286 27.1634 175.688 26.6273 177.262 26.6273C179.082 26.6273 180.631 27.2867 181.565 28.7023C182.623 27.3836 184.27 26.6273 186.188 26.6273C189.284 26.6287 191.571 28.4101 191.571 32.5116Z" fill="white"/>
<path d="M205.955 32.7305V40.0775H201.603V38.3696C200.939 39.6384 199.612 40.2978 197.669 40.2978C194.472 40.2978 192.701 38.5164 192.701 36.2212C192.701 33.7805 194.496 32.2665 198.627 32.2665H201.282C201.209 30.9242 200.299 30.1679 198.454 30.1679C197.176 30.1679 195.75 30.607 194.84 31.3149L193.266 28.1663C194.792 27.1662 197.053 26.6288 199.144 26.6288C203.472 26.6288 205.955 28.532 205.955 32.7305ZM201.284 35.8306V34.6836H199.268C197.768 34.6836 197.226 35.2211 197.226 36.0259C197.226 36.8071 197.865 37.3681 198.972 37.3681C200.006 37.3695 200.914 36.8805 201.284 35.8306Z" fill="white"/>
<path d="M221.686 32.5116V40.0789H217.015V33.2679C217.015 31.3647 216.179 30.5585 214.827 30.5585C213.327 30.5585 212.171 31.4866 212.171 33.6835V40.0789H207.5V26.849H211.951V28.2896C213.009 27.1911 214.509 26.6301 216.18 26.6301C219.301 26.6287 221.686 28.4101 221.686 32.5116Z" fill="white"/>
<path d="M222.566 33.4383C222.566 29.46 225.738 26.6273 230.213 26.6273C233.236 26.6273 235.548 27.9696 236.458 30.2648L232.844 32.096C232.205 30.8508 231.27 30.3147 230.189 30.3147C228.566 30.3147 227.288 31.4381 227.288 33.4397C227.288 35.4897 228.566 36.6131 230.189 36.6131C231.27 36.6131 232.205 36.0757 232.844 34.8318L236.458 36.663C235.548 38.9569 233.238 40.3005 230.213 40.3005C225.738 40.2977 222.566 37.4664 222.566 33.4383Z" fill="white"/>
<path d="M250.926 34.6352H241.238C241.632 35.9774 242.787 36.7586 244.509 36.7586C245.812 36.7586 246.673 36.393 247.583 35.6117L250.041 38.1508C248.763 39.5664 246.894 40.2992 244.361 40.2992C239.616 40.2992 236.542 37.3944 236.542 33.4397C236.542 29.4615 239.665 26.6288 243.869 26.6288C247.803 26.6288 250.999 29.118 250.999 33.4882C251 33.829 250.95 34.2681 250.926 34.6352ZM241.165 32.1945H246.623C246.377 30.8037 245.345 29.9241 243.894 29.9241C242.443 29.9241 241.435 30.8023 241.165 32.1945Z" fill="white"/>
<path d="M89.0791 60.5077L90.6767 56.9436C92.2018 57.9437 94.3645 58.628 96.357 58.628C98.3732 58.628 99.1601 58.067 99.1601 57.2372C99.1601 54.5278 89.3735 56.5045 89.3735 50.1576C89.3735 47.106 91.8822 44.6168 96.996 44.6168C99.2341 44.6168 101.545 45.1293 103.241 46.1059L101.741 49.6935C100.094 48.8153 98.4709 48.3748 96.9709 48.3748C94.9296 48.3748 94.1929 49.0577 94.1929 49.9124C94.1929 52.5248 103.954 50.5717 103.954 56.8688C103.954 59.8469 101.446 62.386 96.3319 62.386C93.505 62.386 90.7018 61.6297 89.0791 60.5077Z" fill="white"/>
<path d="M119.412 48.8138L113.657 62.5812C112.256 65.9984 110.289 66.9999 107.658 66.9999C106.255 66.9999 104.683 66.5359 103.797 65.8031L105.419 62.5563C105.961 63.0438 106.748 63.3375 107.485 63.3375C108.394 63.3375 108.911 62.9954 109.304 62.2155L103.601 48.8138H108.396L111.666 56.8936L114.961 48.8138H119.412Z" fill="white"/>
<path d="M118.986 60.8983L120.387 57.7248C121.616 58.4811 123.411 58.9452 125.035 58.9452C126.609 58.9452 127.125 58.603 127.125 58.042C127.125 56.2607 119.257 58.2858 119.257 52.9889C119.257 50.4997 121.567 48.5951 125.748 48.5951C127.616 48.5951 129.682 48.9857 131.009 49.7185L129.608 52.867C128.28 52.1342 126.953 51.8904 125.773 51.8904C124.199 51.8904 123.634 52.3295 123.634 52.8185C123.634 54.6497 131.477 52.6717 131.477 57.9201C131.477 60.3608 129.215 62.2655 124.887 62.2655C122.625 62.2641 120.289 61.7031 118.986 60.8983Z" fill="white"/>
<path d="M142.687 61.5078C141.876 62.0203 140.67 62.2641 139.441 62.2641C136.023 62.2641 134.032 60.6046 134.032 57.2109V52.7686H132.089V49.3029H134.032V45.8607H138.703V49.3029H141.752V52.7686H138.703V57.1625C138.703 58.139 139.268 58.6765 140.105 58.6765C140.622 58.6765 141.138 58.5296 141.531 58.2609L142.687 61.5078Z" fill="white"/>
<path d="M157.284 56.6015H147.597C147.99 57.9437 149.146 58.7249 150.867 58.7249C152.171 58.7249 153.031 58.3593 153.941 57.578L156.4 60.117C155.122 61.5327 153.252 62.2655 150.719 62.2655C145.974 62.2655 142.9 59.3607 142.9 55.406C142.9 51.4278 146.023 48.5951 150.227 48.5951C154.162 48.5951 157.357 51.0843 157.357 55.4545C157.358 55.7953 157.308 56.2358 157.284 56.6015ZM147.523 54.1608H152.981C152.736 52.77 151.703 51.8904 150.252 51.8904C148.801 51.8904 147.793 52.7686 147.523 54.1608Z" fill="white"/>
<path d="M181.21 54.478V62.0452H176.538V55.2343C176.538 53.331 175.751 52.5249 174.522 52.5249C173.17 52.5249 172.186 53.428 172.186 55.4781V62.0438H167.515V55.2329C167.515 53.3296 166.753 52.5235 165.499 52.5235C164.121 52.5235 163.138 53.4266 163.138 55.4767V62.0425H158.466V48.8139H162.917V50.2061C163.925 49.1312 165.327 48.5951 166.901 48.5951C168.72 48.5951 170.269 49.2544 171.204 50.6701C172.262 49.3514 173.908 48.5951 175.827 48.5951C178.923 48.5951 181.21 50.3764 181.21 54.478Z" fill="white"/>
<path d="M1.50553 0.653076L0 7.98486H10.1146L4.98542 33.3434H14.3005L19.4282 7.98486H29.4953L31.0009 0.653076H1.50553Z" fill="white"/>
<path d="M39.7745 21.5257C39.7745 18.7706 37.8448 17.5101 34.5994 17.5101H29.706L27.7777 27.0845H33.3282C37.4207 27.0831 39.7745 25.1217 39.7745 21.5257ZM49.1817 20.732C49.1817 28.9974 42.8317 34.3678 32.9055 34.3678H26.3196L24.6257 42.9143H15.3107L21.8965 10.224H35.8217C44.3846 10.224 49.1817 14.1011 49.1817 20.732Z" fill="white"/>
<path d="M44.1488 30.4948L47.8185 23.5828C51.1588 25.6841 55.0155 26.8047 58.7786 26.8047C62.3548 26.8047 64.424 25.6827 64.424 23.9097C64.424 19.52 48.4296 21.9482 48.4296 11.673C48.4296 4.62375 54.4964 0 64.2356 0C68.8932 0 73.1265 0.980711 76.0916 2.80223L72.7037 9.6672C70.1169 8.03269 66.9188 7.19188 63.6719 7.19188C59.8139 7.19188 57.7447 8.5923 57.7447 10.3681C57.6972 14.8506 73.7391 12.2824 73.7391 22.3693C73.7391 29.3756 67.5286 33.998 57.8856 33.998C52.2402 33.998 47.1111 32.5034 44.1488 30.4948Z" fill="white"/>
<path d="M82.655 0H81.8179V63.5343H82.655V0Z" fill="white"/>
<path d="M150.313 25.9418C146.249 25.9418 142.955 29.2122 142.955 33.2472C142.955 37.2823 146.249 40.5527 150.313 40.5527C154.378 40.5527 157.672 37.2823 157.672 33.2472C157.672 29.2122 154.378 25.9418 150.313 25.9418ZM152.741 27.8672C154.074 28.46 155.136 29.5155 155.733 30.837L155.097 31.121C154.569 29.9533 153.631 29.0224 152.455 28.4988L152.741 27.8672ZM147.886 27.8672L148.172 28.4988C146.995 29.0224 146.058 29.9533 145.53 31.121L144.894 30.837C145.491 29.5155 146.553 28.46 147.886 27.8672ZM147.886 38.6287C146.553 38.0358 145.491 36.9803 144.894 35.6588L145.53 35.3749C146.058 36.5426 146.995 37.4734 148.172 37.997L147.886 38.6287ZM150.89 35.4095H149.737V33.8207H148.137V32.6765H149.737V31.0877H150.89V32.6765H152.49V33.8207H150.89V35.4095ZM152.741 38.6287L152.455 37.997C153.631 37.4734 154.569 36.5426 155.097 35.3749L155.733 35.6588C155.136 36.9803 154.074 38.0358 152.741 38.6287Z" fill="white"/>
</svg>
