<?xml version="1.0" encoding="UTF-8"?>
<svg id="tps_logo_nav" viewBox="0 0 448 32" fill="none" xmlns="http://www.w3.org/2000/svg">
<path d="M1.02788 0.473633L0 5.77436H6.90556L3.40372 24.1081H9.76343L13.2643 5.77436H20.1375L21.1654 0.473633H1.02788Z" fill="white"/>
<path d="M27.1558 15.562C27.1558 13.5701 25.8383 12.6588 23.6225 12.6588H20.2817L18.9652 19.5809H22.7547C25.5487 19.5799 27.1558 18.1618 27.1558 15.562ZM33.5784 14.9882C33.5784 20.9639 29.243 24.8466 22.4661 24.8466H17.9697L16.8132 31.0256H10.4535L14.9499 7.39111H24.457C30.3033 7.39111 33.5784 10.1942 33.5784 14.9882Z" fill="white"/>
<path d="M30.1423 22.0469L32.6477 17.0496C34.9283 18.5688 37.5613 19.379 40.1306 19.379C42.5721 19.379 43.9849 18.5678 43.9849 17.286C43.9849 14.1123 33.065 15.8679 33.065 8.43906C33.065 3.34263 37.207 -0.000244141 43.8563 -0.000244141C47.0361 -0.000244141 49.9264 0.70879 51.9507 2.02571L49.6377 6.98895C47.8716 5.80722 45.6881 5.19934 43.4714 5.19934C40.8374 5.19934 39.4247 6.21181 39.4247 7.49568C39.3923 10.7364 50.3446 8.8797 50.3446 16.1723C50.3446 21.2377 46.1044 24.5796 39.5209 24.5796C35.6666 24.5796 32.1647 23.499 30.1423 22.0469Z" fill="white"/>
<path d="M56.4314 -0.000244141H55.8599V31.3284H56.4314V-0.000244141Z" fill="white"/>
<path d="M67.8118 7.99933H61.7712V3.36157H79.3881V7.99933H73.3751V24.0377H67.8118V7.99933Z" fill="white"/>
<path d="M94.7471 17.4513H83.6767C84.1263 19.0757 85.4466 20.0211 87.4138 20.0211C88.9028 20.0211 89.8868 19.5784 90.9261 18.633L93.7354 21.7055C92.2741 23.419 90.1393 24.3043 87.2452 24.3043C81.8229 24.3043 78.3105 20.7892 78.3105 16.0042C78.3105 11.1892 81.8791 7.76318 86.6831 7.76318C91.1786 7.76318 94.8309 10.7756 94.8309 16.0633C94.8309 16.4769 94.7747 17.0077 94.7471 17.4513ZM83.5919 14.498H89.8297C89.5486 12.8145 88.3683 11.751 86.7108 11.751C85.0532 11.751 83.9015 12.8135 83.5919 14.498Z" fill="white"/>
<path d="M112.783 17.4513H101.713C102.162 19.0757 103.483 20.0211 105.45 20.0211C106.939 20.0211 107.923 19.5784 108.962 18.633L111.772 21.7055C110.311 23.419 108.176 24.3043 105.282 24.3043C99.86 24.3043 96.3477 20.7892 96.3477 16.0042C96.3477 11.1892 99.9162 7.76318 104.72 7.76318C109.216 7.76318 112.868 10.7756 112.868 16.0633C112.868 16.4769 112.812 17.0077 112.783 17.4513ZM101.629 14.498H107.867C107.586 12.8145 106.405 11.751 104.748 11.751C103.09 11.751 101.938 12.8135 101.629 14.498Z" fill="white"/>
<path d="M125.847 23.3877C124.92 24.0076 123.542 24.303 122.138 24.303C118.232 24.303 115.956 22.2941 115.956 18.1891V12.8133H113.737V8.61917H115.956V4.4541H121.295V8.61917H124.779V12.8133H121.295V18.13C121.295 19.3117 121.941 19.9617 122.896 19.9617C123.486 19.9617 124.077 19.7844 124.526 19.459L125.847 23.3877Z" fill="white"/>
<path d="M144.108 14.8815V24.0378H138.77V15.7968C138.77 13.4934 137.814 12.518 136.269 12.518C134.555 12.518 133.234 13.6406 133.234 16.2985V24.0378H127.896V2.12085H133.234V9.50562C134.414 8.35394 136.016 7.76307 137.814 7.76307C141.383 7.76307 144.108 9.91922 144.108 14.8815Z" fill="white"/>
<path d="M342.721 21.3511L344.548 17.0388C346.29 18.2496 348.762 19.0768 351.038 19.0768C353.342 19.0768 354.241 18.3978 354.241 17.3933C354.241 14.1146 343.058 16.507 343.058 8.82685C343.058 5.13446 345.924 2.12207 351.768 2.12207C354.324 2.12207 356.965 2.74298 358.905 3.9237L357.191 8.26603C355.308 7.20248 353.454 6.6707 351.74 6.6707C349.408 6.6707 348.565 7.49791 348.565 8.53142C348.565 11.692 359.719 9.32958 359.719 16.9497C359.719 20.5529 356.853 23.6254 351.009 23.6254C347.779 23.6254 344.575 22.7091 342.721 21.3511Z" fill="white"/>
<path d="M377.383 7.20142L370.808 23.8607C369.206 27.9958 366.958 29.2075 363.952 29.2075C362.35 29.2075 360.552 28.6457 359.54 27.7604L361.395 23.8317C362.013 24.4225 362.912 24.7771 363.754 24.7771C364.794 24.7771 365.384 24.3635 365.834 23.4191L359.315 7.20242H364.794L368.531 16.9797L372.296 7.20242H377.383V7.20142Z" fill="white"/>
<path d="M376.896 21.8228L378.497 17.9822C379.902 18.8985 381.953 19.4593 383.807 19.4593C385.605 19.4593 386.195 19.0457 386.195 18.3657C386.195 16.2096 377.204 18.6612 377.204 12.2518C377.204 9.23942 379.845 6.93506 384.622 6.93506C386.757 6.93506 389.118 7.40775 390.635 8.29404L389.034 12.1046C387.516 11.2183 386 10.9229 384.651 10.9229C382.852 10.9229 382.206 11.4546 382.206 12.0455C382.206 14.2607 391.17 11.8682 391.17 18.2185C391.17 21.1728 388.585 23.4762 383.64 23.4762C381.054 23.4772 378.384 22.7972 376.896 21.8228Z" fill="white"/>
<path d="M403.98 22.5615C403.053 23.1814 401.675 23.4769 400.271 23.4769C396.366 23.4769 394.09 21.468 394.09 17.363V11.9871H391.87V7.792H394.09V3.62793H399.428V7.793H402.912V11.9871H399.428V17.3039C399.428 18.4856 400.074 19.1355 401.03 19.1355C401.619 19.1355 402.21 18.9583 402.66 18.6328L403.98 22.5615Z" fill="white"/>
            <path d="M420.66 16.6244H409.59C410.039 18.2488 411.36 19.1941 413.327 19.1941C414.816 19.1941 415.8 18.7515 416.839 17.8061L419.648 20.8786C418.187 22.5921 416.052 23.4774 413.158 23.4774C407.736 23.4774 404.224 19.9623 404.224 15.1773C404.224 10.3623 407.792 6.93628 412.596 6.93628C417.092 6.93628 420.744 9.94867 420.744 15.2364C420.744 15.65 420.688 16.1818 420.66 16.6244ZM409.506 13.6711H415.744C415.463 11.9876 414.282 10.9241 412.625 10.9241C410.967 10.9241 409.815 11.9876 409.506 13.6711Z" fill="white"/>
            <path d="M448.001 14.0547V23.211H442.662V14.97C442.662 12.6666 441.763 11.6912 440.359 11.6912C438.814 11.6912 437.689 12.7838 437.689 15.2654V23.211H432.351V14.97C432.351 12.6666 431.48 11.6912 430.047 11.6912C428.473 11.6912 427.35 12.7838 427.35 15.2654V23.211H422.011V7.20167H427.097V8.88612C428.249 7.58623 429.85 6.93628 431.649 6.93628C433.728 6.93628 435.498 7.73444 436.565 9.44694C437.773 7.85161 439.656 6.93628 441.848 6.93628C445.388 6.93628 448.001 9.09242 448.001 14.0547Z" fill="white"/>
<path d="M169.318 11.2781C169.318 15.9739 165.946 18.8982 160.579 18.8982H157.152V24.3041H151.588V3.62793H160.579C165.946 3.62793 169.318 6.55219 169.318 11.2781ZM163.698 11.2781C163.698 9.35828 162.546 8.23564 160.242 8.23564H157.151V14.2905H160.242C162.546 14.2905 163.698 13.1678 163.698 11.2781Z" fill="white"/>
<path d="M186.411 17.7174H175.341C175.791 19.3418 177.111 20.2872 179.078 20.2872C180.567 20.2872 181.551 19.8445 182.59 18.8991L185.4 21.9716C183.938 23.6851 181.804 24.5704 178.909 24.5704C173.487 24.5704 169.975 21.0553 169.975 16.2703C169.975 11.4553 173.543 8.0293 178.347 8.0293C182.843 8.0293 186.495 11.0417 186.495 16.3294C186.495 16.742 186.439 17.2738 186.411 17.7174ZM175.256 14.7631H181.494C181.213 13.0797 180.033 12.0161 178.375 12.0161C176.718 12.0161 175.566 13.0797 175.256 14.7631Z" fill="white"/>
<path d="M197.961 8.02856V13.0799C197.484 13.0208 197.146 12.9918 196.753 12.9918C194.59 12.9918 193.101 14.1435 193.101 16.9496V24.3043H187.762V8.29395H192.848V10.2147C193.943 8.76664 195.714 8.02856 197.961 8.02856Z" fill="white"/>
<path d="M206.826 8.88469H210.451V13.0788H206.967V24.3032H201.628V13.0798H199.409V8.88469H201.628V8.47208C201.628 4.63148 203.904 2.12183 207.978 2.12183C209.271 2.12183 210.648 2.38721 211.518 2.94903L210.198 6.9068C209.748 6.64142 209.159 6.43411 208.597 6.43411C207.473 6.43411 206.827 7.1131 206.827 8.53117V8.88469H206.826Z" fill="white"/>
<path d="M239.551 8.02856V13.0799C239.074 13.0208 238.736 12.9918 238.343 12.9918C236.18 12.9918 234.691 14.1435 234.691 16.9496V24.3043H229.352V8.29395H234.438V10.2147C235.534 8.76664 237.304 8.02856 239.551 8.02856Z" fill="white"/>
<path d="M267.331 15.1469V24.3033H261.993V16.0633C261.993 13.7599 261.093 12.7845 259.688 12.7845C258.143 12.7845 257.019 13.8771 257.019 16.3587V24.3043H251.681V16.0633C251.681 13.7599 250.81 12.7845 249.376 12.7845C247.802 12.7845 246.679 13.8771 246.679 16.3587V24.3043H241.341V8.29395H246.427V9.97841C247.579 8.67851 249.18 8.02856 250.979 8.02856C253.058 8.02856 254.828 8.82673 255.896 10.5392C257.104 8.9439 258.986 8.02856 261.178 8.02856C264.718 8.02856 267.331 10.1847 267.331 15.1469Z" fill="white"/>
<path d="M283.768 15.4133V24.3043H278.796V22.2363C278.037 23.7725 276.52 24.5697 274.3 24.5697C270.648 24.5697 268.624 22.4135 268.624 19.6365C268.624 16.6832 270.675 14.8515 275.396 14.8515H278.43C278.346 13.2271 277.306 12.3118 275.198 12.3118C273.737 12.3118 272.108 12.8436 271.068 13.6998L269.269 9.88928C271.012 8.67851 273.596 8.02856 275.984 8.02856C280.93 8.02856 283.768 10.3329 283.768 15.4133ZM278.43 19.1638V17.7758H276.125C274.412 17.7758 273.793 18.4257 273.793 19.4001C273.793 20.3455 274.524 21.0245 275.788 21.0245C276.968 21.0255 278.008 20.4346 278.43 19.1638Z" fill="white"/>
<path d="M301.744 15.147V24.3033H296.406V16.0633C296.406 13.7599 295.45 12.7845 293.905 12.7845C292.191 12.7845 290.871 13.9072 290.871 16.565V24.3043H285.532V8.29398H290.618V10.0365C291.826 8.70758 293.54 8.02759 295.451 8.02759C299.019 8.02859 301.744 10.1847 301.744 15.147Z" fill="white"/>
<path d="M302.75 16.2696C302.75 11.4546 306.375 8.02856 311.489 8.02856C314.945 8.02856 317.586 9.65293 318.626 12.43L314.495 14.6452C313.765 13.139 312.697 12.4891 311.46 12.4891C309.607 12.4891 308.145 13.848 308.145 16.2696C308.145 18.7512 309.607 20.1092 311.46 20.1092C312.697 20.1092 313.765 19.4592 314.495 17.953L318.626 20.1683C317.587 22.9443 314.945 24.5697 311.489 24.5697C306.374 24.5697 302.75 21.1437 302.75 16.2696Z" fill="white"/>
<path d="M335.156 17.7174H324.086C324.535 19.3418 325.856 20.2872 327.823 20.2872C329.312 20.2872 330.296 19.8445 331.335 18.8991L334.145 21.9716C332.684 23.6851 330.549 24.5704 327.655 24.5704C322.233 24.5704 318.721 21.0553 318.721 16.2703C318.721 11.4553 322.289 8.0293 327.093 8.0293C331.589 8.0293 335.241 11.0417 335.241 16.3294C335.24 16.742 335.184 17.2738 335.156 17.7174ZM324.001 14.7631H330.239C329.958 13.0797 328.777 12.0161 327.12 12.0161C325.462 12.0161 324.311 13.0797 324.001 14.7631Z" fill="white"/>
<path d="M220.186 7.19824C215.541 7.19824 211.777 11.156 211.777 16.0381C211.777 20.9203 215.541 24.878 220.186 24.878C224.83 24.878 228.594 20.9203 228.594 16.0381C228.594 11.156 224.83 7.19824 220.186 7.19824ZM222.96 9.52664C224.482 10.2447 225.696 11.5205 226.379 13.1209L225.651 13.4644C225.048 12.0523 223.976 10.9247 222.633 10.2918L222.96 9.52664ZM217.41 9.52664L217.737 10.2918C216.394 10.9257 215.322 12.0523 214.719 13.4644L213.991 13.1209C214.675 11.5215 215.888 10.2447 217.41 9.52664ZM217.41 22.5496C215.888 21.8316 214.675 20.5557 213.991 18.9554L214.719 18.6119C215.322 20.0239 216.394 21.1506 217.737 21.7845L217.41 22.5496ZM220.844 18.6539H219.526V16.7311H217.697V15.3461H219.526V13.4233H220.844V15.3461H222.673V16.7311H220.844V18.6539ZM222.96 22.5496L222.633 21.7845C223.976 21.1506 225.049 20.0239 225.651 18.6119L226.379 18.9554C225.696 20.5547 224.482 21.8316 222.96 22.5496Z" fill="white"/>
</svg>
